<svg xmlns="http://www.w3.org/2000/svg" viewBox="0 0 620 350.9" width="620" height="350.9" font-family="-apple-system, 'Segoe UI', Roboto, Helvetica, Arial, sans-serif" role="img">
  <title>Spring constraints</title>
  <desc>Left: an edge is a spring-damper between two mass points. Right: a cell pulls its deformed corners back toward its best-fitting rotated rest shape.</desc>
  <rect x="0.5" y="0.5" width="619" height="349.9" rx="12" fill="#ffffff" stroke="#e1e4e8"/>
  <text x="160.0" y="38.0" font-size="15" fill="#1c1e21" text-anchor="middle" font-weight="600" stroke="#ffffff" stroke-width="3" stroke-linejoin="round" paint-order="stroke">Edge: spring-damper</text>
  <text x="460.0" y="38.0" font-size="15" fill="#1c1e21" text-anchor="middle" font-weight="600" stroke="#ffffff" stroke-width="3" stroke-linejoin="round" paint-order="stroke">Cell: elastic element</text>
  <g transform="translate(0,-6.1)"><line x1="65.0" y1="118.0" x2="65.0" y2="162.0" stroke="#1a8870" stroke-width="2.4" stroke-linecap="round"/></g>
  <g transform="translate(0,-6.1)"><line x1="255.0" y1="118.0" x2="255.0" y2="162.0" stroke="#1a8870" stroke-width="2.4" stroke-linecap="round"/></g>
  <g transform="translate(0,-6.1)"><polyline points="65.0,118.0 93.5,118.0 104.6,125.0 115.7,111.0 126.8,125.0 137.8,111.0 148.9,125.0 160.0,111.0 171.1,125.0 182.2,111.0 193.2,125.0 204.3,111.0 215.4,125.0 226.5,118.0 255.0,118.0" fill="none" stroke="#ea8a0c" stroke-width="2.2" stroke-linejoin="round"/></g>
  <g transform="translate(0,-6.1)"><line x1="65.0" y1="162.0" x2="125.8" y2="162.0" stroke="#4b5563" stroke-width="2.0" stroke-linecap="round"/></g>
  <g transform="translate(0,-6.1)"><polyline points="194.2,171.0 125.8,171.0 125.8,153.0 194.2,153.0" fill="none" stroke="#4b5563" stroke-width="2.0" stroke-linejoin="round"/></g>
  <g transform="translate(0,-6.1)"><line x1="169.5" y1="168.0" x2="169.5" y2="156.0" stroke="#4b5563" stroke-width="2.6" stroke-linecap="round"/></g>
  <g transform="translate(0,-6.1)"><line x1="169.5" y1="162.0" x2="255.0" y2="162.0" stroke="#4b5563" stroke-width="2.0" stroke-linecap="round"/></g>
  <g transform="translate(0,-6.1)"><circle cx="65.0" cy="140.0" r="7" fill="#1a8870" stroke="#ffffff" stroke-width="1.5"/></g>
  <g transform="translate(0,-6.1)"><circle cx="255.0" cy="140.0" r="7" fill="#1a8870" stroke="#ffffff" stroke-width="1.5"/></g>
  <g transform="translate(0,-6.1)"><line x1="84.0" y1="228.0" x2="236.0" y2="228.0" stroke="#8b95a1" stroke-width="1.4" stroke-linecap="round" stroke-dasharray="4 3"/></g>
  <g transform="translate(0,-6.1)"><line x1="84.0" y1="224.0" x2="84.0" y2="232.0" stroke="#8b95a1" stroke-width="1.4" stroke-linecap="round"/></g>
  <g transform="translate(0,-6.1)"><line x1="236.0" y1="224.0" x2="236.0" y2="232.0" stroke="#8b95a1" stroke-width="1.4" stroke-linecap="round"/></g>
  <g transform="translate(0,-6.1)"><line x1="65.0" y1="258.0" x2="255.0" y2="258.0" stroke="#1c1e21" stroke-width="1.4" stroke-linecap="round"/></g>
  <g transform="translate(0,-6.1)"><line x1="65.0" y1="254.0" x2="65.0" y2="262.0" stroke="#1c1e21" stroke-width="1.4" stroke-linecap="round"/></g>
  <g transform="translate(0,-6.1)"><line x1="255.0" y1="254.0" x2="255.0" y2="262.0" stroke="#1c1e21" stroke-width="1.4" stroke-linecap="round"/></g>
  <g transform="translate(0,-6.1)"><text x="160.0" y="221.0" font-size="11" fill="#606770" text-anchor="middle" font-weight="normal" stroke="#ffffff" stroke-width="3" stroke-linejoin="round" paint-order="stroke">rest length</text></g>
  <g transform="translate(0,-6.1)"><text x="160.0" y="251.0" font-size="11" fill="#606770" text-anchor="middle" font-weight="normal" stroke="#ffffff" stroke-width="3" stroke-linejoin="round" paint-order="stroke">current length</text></g>
  <g transform="translate(0,-6.1)"><text x="160.0" y="102.0" font-size="12" fill="#ea8a0c" text-anchor="middle" font-weight="600" stroke="#ffffff" stroke-width="3" stroke-linejoin="round" paint-order="stroke">spring</text></g>
  <g transform="translate(0,-6.1)"><text x="160.0" y="190.0" font-size="12" fill="#4b5563" text-anchor="middle" font-weight="600" stroke="#ffffff" stroke-width="3" stroke-linejoin="round" paint-order="stroke">damper</text></g>
  <g transform="translate(0,-6.1)"><polygon points="398.8,200.9 533.2,152.0 450.6,134.2" fill="#d3f3ea" stroke="#1a8870" stroke-width="2" stroke-linejoin="round"/></g>
  <g transform="translate(0,-6.1)"><polygon points="419.4,209.4 522.8,171.7 440.3,106.0" fill="none" stroke="#8b95a1" stroke-width="1.6" stroke-linejoin="round" stroke-dasharray="5 4"/></g>
  <g transform="translate(0,-6.1)"><line x1="398.8" y1="200.9" x2="412.0" y2="206.3" stroke="#ffffff" stroke-width="5.4" stroke-linecap="round"/></g>
  <g transform="translate(0,-6.1)"><polygon points="419.4,209.4 409.6,209.7 412.6,202.2" fill="#ffffff" stroke="#ffffff" stroke-width="3.0" stroke-linejoin="round"/></g>
  <g transform="translate(0,-6.1)"><line x1="398.8" y1="200.9" x2="412.0" y2="206.3" stroke="#ea8a0c" stroke-width="2.4" stroke-linecap="butt"/></g>
  <g transform="translate(0,-6.1)"><polygon points="419.4,209.4 409.6,209.7 412.6,202.2" fill="#ea8a0c" stroke="none" stroke-width="1.5" stroke-linejoin="round"/></g>
  <g transform="translate(0,-6.1)"><line x1="533.2" y1="152.0" x2="526.5" y2="164.6" stroke="#ffffff" stroke-width="5.4" stroke-linecap="round"/></g>
  <g transform="translate(0,-6.1)"><polygon points="522.8,171.7 523.4,161.9 530.6,165.6" fill="#ffffff" stroke="#ffffff" stroke-width="3.0" stroke-linejoin="round"/></g>
  <g transform="translate(0,-6.1)"><line x1="533.2" y1="152.0" x2="526.5" y2="164.6" stroke="#ea8a0c" stroke-width="2.4" stroke-linecap="butt"/></g>
  <g transform="translate(0,-6.1)"><polygon points="522.8,171.7 523.4,161.9 530.6,165.6" fill="#ea8a0c" stroke="none" stroke-width="1.5" stroke-linejoin="round"/></g>
  <g transform="translate(0,-6.1)"><line x1="450.6" y1="134.2" x2="443.1" y2="113.5" stroke="#ffffff" stroke-width="5.4" stroke-linecap="round"/></g>
  <g transform="translate(0,-6.1)"><polygon points="440.3,106.0 447.2,113.0 439.6,115.8" fill="#ffffff" stroke="#ffffff" stroke-width="3.0" stroke-linejoin="round"/></g>
  <g transform="translate(0,-6.1)"><line x1="450.6" y1="134.2" x2="443.1" y2="113.5" stroke="#ea8a0c" stroke-width="2.4" stroke-linecap="butt"/></g>
  <g transform="translate(0,-6.1)"><polygon points="440.3,106.0 447.2,113.0 439.6,115.8" fill="#ea8a0c" stroke="none" stroke-width="1.5" stroke-linejoin="round"/></g>
  <g transform="translate(0,-6.1)"><circle cx="419.4" cy="209.4" r="4" fill="#ffffff" stroke="#8b95a1" stroke-width="1.5"/></g>
  <g transform="translate(0,-6.1)"><circle cx="522.8" cy="171.7" r="4" fill="#ffffff" stroke="#8b95a1" stroke-width="1.5"/></g>
  <g transform="translate(0,-6.1)"><circle cx="440.3" cy="106.0" r="4" fill="#ffffff" stroke="#8b95a1" stroke-width="1.5"/></g>
  <g transform="translate(0,-6.1)"><circle cx="398.8" cy="200.9" r="5.5" fill="#1a8870" stroke="#ffffff" stroke-width="1.4"/></g>
  <g transform="translate(0,-6.1)"><circle cx="533.2" cy="152.0" r="5.5" fill="#1a8870" stroke="#ffffff" stroke-width="1.4"/></g>
  <g transform="translate(0,-6.1)"><circle cx="450.6" cy="134.2" r="5.5" fill="#1a8870" stroke="#ffffff" stroke-width="1.4"/></g>
  <g transform="translate(0,-6.1)"><text x="460.0" y="298.0" font-size="12" fill="#606770" text-anchor="middle" font-weight="normal" font-style="italic" stroke="#ffffff" stroke-width="3" stroke-linejoin="round" paint-order="stroke">corotated or Neo-Hookean model</text></g>
  <g transform="translate(-143.0,0)">
    <g transform="translate(0,-6.1)"><line x1="226.0" y1="330.0" x2="246.0" y2="330.0" stroke="#ea8a0c" stroke-width="2" stroke-linecap="butt"/></g>
    <g transform="translate(0,-6.1)"><polygon points="252.0,330.0 245.0,333.1 245.0,326.9" fill="#ea8a0c" stroke="none" stroke-width="1.5" stroke-linejoin="round"/></g>
    <g transform="translate(0,-6.1)"><text x="260.0" y="334.5" font-size="12" fill="#606770" text-anchor="start" font-weight="normal" stroke="#ffffff" stroke-width="3" stroke-linejoin="round" paint-order="stroke">constraint pull toward the rest shape</text></g>
    <g transform="translate(0,-6.1)"><line x1="537.6" y1="330.0" x2="563.6" y2="330.0" stroke="#8b95a1" stroke-width="1.5" stroke-linecap="round" stroke-dasharray="4 3"/></g>
    <g transform="translate(0,-6.1)"><text x="571.6" y="334.5" font-size="12" fill="#606770" text-anchor="start" font-weight="normal" stroke="#ffffff" stroke-width="3" stroke-linejoin="round" paint-order="stroke">rest configuration</text></g>
  </g>
</svg>
