<?xml version="1.0" encoding="UTF-8" standalone="no"?>
<!DOCTYPE svg PUBLIC "-//W3C//DTD SVG 1.1//EN" "http://www.w3.org/Graphics/SVG/1.1/DTD/svg11.dtd">
<svg width="100%" height="100%" viewBox="0 0 1368 794" version="1.1" xmlns="http://www.w3.org/2000/svg" xmlns:xlink="http://www.w3.org/1999/xlink" xml:space="preserve" xmlns:serif="http://www.serif.com/" style="fill-rule:evenodd;clip-rule:evenodd;stroke-linecap:round;stroke-linejoin:round;stroke-miterlimit:1.5;">
    <g transform="matrix(1,0,0,1,-380,-778)">
        <g id="Capsule" transform="matrix(0.857143,0,0,0.857143,941.904,733.127)">
            <circle cx="242.126" cy="124.016" r="41.339" style="fill:rgb(221,221,221);"/>
            <g transform="matrix(1,0,0,1,-5.68434e-14,129.921)">
                <circle cx="242.126" cy="124.016" r="41.339" style="fill:rgb(221,221,221);"/>
            </g>
            <rect x="200.787" y="124.016" width="82.677" height="135.827" style="fill:rgb(221,221,221);"/>
        </g>
        <g id="Capsule1" serif:id="Capsule" transform="matrix(0.857143,0,0,0.857143,428.487,1229.53)">
            <circle cx="242.126" cy="124.016" r="41.339" style="fill:rgb(221,221,221);"/>
            <g transform="matrix(1,0,0,1,-5.68434e-14,129.921)">
                <circle cx="242.126" cy="124.016" r="41.339" style="fill:rgb(221,221,221);"/>
            </g>
            <rect x="200.787" y="124.016" width="82.677" height="135.827" style="fill:rgb(221,221,221);"/>
        </g>
        <g id="Capsule2" serif:id="Capsule">
        </g>
        <g id="Capsule3" serif:id="Capsule">
        </g>
        <g id="Capsule4" serif:id="Capsule">
        </g>
        <g id="Capsule5" serif:id="Capsule">
        </g>
        <g id="Capsule6" serif:id="Capsule" transform="matrix(0.857143,0,0,0.857143,1111.75,1229.53)">
            <circle cx="242.126" cy="124.016" r="41.339" style="fill:rgb(221,221,221);"/>
            <g transform="matrix(1,0,0,1,-5.68434e-14,129.921)">
                <circle cx="242.126" cy="124.016" r="41.339" style="fill:rgb(221,221,221);"/>
            </g>
            <rect x="200.787" y="124.016" width="82.677" height="135.827" style="fill:rgb(221,221,221);"/>
        </g>
        <g transform="matrix(1,0,0,1,377.953,602.549)">
            <path d="M425.197,472.441L708.661,472.441L708.661,389.764L862.205,389.764L864.205,188.976C864.205,188.976 1064.79,190.805 1079,188.976" style="fill:none;stroke:rgb(76,76,76);stroke-width:6.72px;"/>
        </g>
        <g transform="matrix(1,0,0,1,652.136,1015.75)">
            <path d="M425.197,472.441L708.661,472.441L708.661,333.392L862.205,333.392L864.205,188.976C864.205,188.976 1064.79,190.805 1079,188.976" style="fill:none;stroke:rgb(76,76,76);stroke-width:6.72px;"/>
        </g>
        <g transform="matrix(1,0,0,1,-30.3484,1015.75)">
            <path d="M425.197,472.441L708.661,472.441L708.661,389.764L747.205,389.764L744.094,188.976C744.094,188.976 1059.67,190.805 1073.89,188.976" style="fill:none;stroke:rgb(76,76,76);stroke-width:6.72px;"/>
        </g>
        <g id="Capsule7" serif:id="Capsule" transform="matrix(0.857143,0,0,0.857143,796.4,815.804)">
            <circle cx="242.126" cy="124.016" r="41.339" style="fill:rgb(76,76,76);"/>
            <g transform="matrix(1,0,0,1,-5.68434e-14,129.921)">
                <circle cx="242.126" cy="124.016" r="41.339" style="fill:rgb(76,76,76);"/>
            </g>
            <rect x="200.787" y="124.016" width="82.677" height="135.827" style="fill:rgb(76,76,76);"/>
        </g>
        <g id="Capsule8" serif:id="Capsule" transform="matrix(0.857143,0,0,0.857143,388.099,1229.19)">
            <circle cx="242.126" cy="124.016" r="41.339" style="fill:rgb(76,76,76);"/>
            <g transform="matrix(1,0,0,1,-5.68434e-14,129.921)">
                <circle cx="242.126" cy="124.016" r="41.339" style="fill:rgb(76,76,76);"/>
            </g>
            <rect x="200.787" y="124.016" width="82.677" height="135.827" style="fill:rgb(76,76,76);"/>
        </g>
        <g id="Capsule9" serif:id="Capsule">
        </g>
        <g id="Capsule10" serif:id="Capsule">
        </g>
        <g id="Capsule11" serif:id="Capsule" transform="matrix(0.857143,0,0,0.857143,1072.47,1229.53)">
            <circle cx="242.126" cy="124.016" r="41.339" style="fill:rgb(76,76,76);"/>
            <g transform="matrix(1,0,0,1,-5.68434e-14,129.921)">
                <circle cx="242.126" cy="124.016" r="41.339" style="fill:rgb(76,76,76);"/>
            </g>
            <rect x="200.787" y="124.016" width="82.677" height="135.827" style="fill:rgb(76,76,76);"/>
        </g>
        <g transform="matrix(1,0,0,1,377.953,602.549)">
            <g transform="matrix(1,-0,-0,1,2.04724,175.451)">
                <path d="M723.116,235.507L718.425,226.124L713.734,235.507C716.08,233.161 720.771,233.161 723.116,235.507Z" style="fill:rgb(10,148,3);"/>
                <path d="M723.116,285.246L718.425,294.628L713.734,285.246C716.08,287.591 720.771,287.591 723.116,285.246Z" style="fill:rgb(10,148,3);"/>
                <path d="M718.425,233.63L718.425,287.122" style="fill:none;stroke:rgb(10,148,3);stroke-width:3.13px;"/>
            </g>
        </g>
        <g transform="matrix(1,0,0,1,652.136,1015.75)">
            <g transform="matrix(1,-0,-0,1,-272.136,-237.748)">
                <path d="M995.96,588.416L991.163,579.087L986.578,588.521C988.897,586.149 993.588,586.097 995.96,588.416Z" style="fill:rgb(175,7,30);"/>
                <path d="M997.194,698.392L992.608,707.827L987.812,698.498C990.184,700.817 994.875,700.764 997.194,698.392Z" style="fill:rgb(175,7,30);"/>
                <path d="M991.248,586.592C991.503,609.371 992.268,677.543 992.524,700.321" style="fill:none;stroke:rgb(175,7,30);stroke-width:3.13px;"/>
            </g>
        </g>
        <g transform="matrix(1,0,0,1,-32.2343,1015.75)">
            <g transform="matrix(1,-0,-0,1,412.234,-237.748)">
                <path d="M312.929,648.705L308.238,639.323L303.547,648.705C305.893,646.36 310.584,646.36 312.929,648.705Z" style="fill:rgb(10,148,3);"/>
                <path d="M312.929,698.444L308.238,707.827L303.547,698.444C305.893,700.79 310.584,700.79 312.929,698.444Z" style="fill:rgb(10,148,3);"/>
                <path d="M308.238,646.829L308.238,700.321" style="fill:none;stroke:rgb(10,148,3);stroke-width:3.13px;"/>
            </g>
        </g>
        <g transform="matrix(1,0,0,1,377.953,602.549)">
            <g transform="matrix(1,-0,-0,1,2.04724,175.451)">
                <path d="M715.997,197.811L706.614,202.502L715.997,207.193C713.651,204.848 713.651,200.157 715.997,197.811Z" style="fill:rgb(10,148,3);"/>
                <path d="M838.964,197.811L848.346,202.502L838.964,207.193C841.31,204.848 841.31,200.157 838.964,197.811Z" style="fill:rgb(10,148,3);"/>
                <path d="M714.12,202.502L840.841,202.502" style="fill:none;stroke:rgb(10,148,3);stroke-width:3.13px;"/>
            </g>
        </g>
        <g transform="matrix(1,0,0,1,651.526,955.681)">
            <g transform="matrix(1,-0,-0,1,-271.526,-177.681)">
                <path d="M989.57,550.942L980.187,555.633L989.57,560.324C987.224,557.979 987.224,553.288 989.57,550.942Z" style="fill:rgb(10,148,3);"/>
                <path d="M1112.54,550.942L1121.92,555.633L1112.54,560.324C1114.88,557.979 1114.88,553.288 1112.54,550.942Z" style="fill:rgb(10,148,3);"/>
                <path d="M987.693,555.633L1114.41,555.633" style="fill:none;stroke:rgb(10,148,3);stroke-width:3.13px;"/>
            </g>
        </g>
        <g transform="matrix(1,0,0,1,-30.3484,1015.75)">
            <g transform="matrix(1,-0,-0,1,410.348,-237.748)">
                <path d="M307.695,611.01L298.313,615.701L307.695,620.392C305.35,618.046 305.35,613.355 307.695,611.01Z" style="fill:rgb(175,7,30);"/>
                <path d="M324.364,611.01L333.746,615.701L324.364,620.392C326.709,618.046 326.709,613.355 324.364,611.01Z" style="fill:rgb(175,7,30);"/>
                <path d="M305.819,615.701L326.24,615.701" style="fill:none;stroke:rgb(175,7,30);stroke-width:3.13px;"/>
            </g>
        </g>
        <g transform="matrix(1,0,0,1,377.953,605.549)">
            <text x="732.283px" y="443.105px" style="font-family:'ArialMT', 'Arial', sans-serif;font-size:25px;fill:rgb(10,148,3);">&lt; Max height</text>
        </g>
        <g transform="matrix(1,0,0,1,647.148,988.455)">
            <text x="732.283px" y="443.105px" style="font-family:'ArialMT', 'Arial', sans-serif;font-size:25px;fill:rgb(175,7,30);">&gt; Max height</text>
        </g>
        <g transform="matrix(1,0,0,1,-32.2343,1018.75)">
            <text x="732.283px" y="443.105px" style="font-family:'ArialMT', 'Arial', sans-serif;font-size:25px;fill:rgb(10,148,3);">&lt; Max height</text>
        </g>
        <g transform="matrix(1,0,0,1,243.002,696.85)">
            <text x="732.283px" y="443.105px" style="font-family:'ArialMT', 'Arial', sans-serif;font-size:25px;fill:rgb(0,96,196);">Desired movement</text>
        </g>
        <g transform="matrix(1,0,0,1,500.143,1110.24)">
            <text x="732.283px" y="443.105px" style="font-family:'ArialMT', 'Arial', sans-serif;font-size:25px;fill:rgb(0,96,196);">Desired movement</text>
        </g>
        <g transform="matrix(1,0,0,1,363.588,528.309)">
            <text x="732.283px" y="443.105px" style="font-family:'ArialMT', 'Arial', sans-serif;font-size:25px;fill:rgb(10,148,3);">&gt; Min width</text>
        </g>
        <g transform="matrix(1,0,0,1,635.909,879.73)">
            <text x="732.283px" y="443.105px" style="font-family:'ArialMT', 'Arial', sans-serif;font-size:25px;fill:rgb(10,148,3);">&gt; Min width</text>
        </g>
        <g transform="matrix(1,0,0,1,-7.76181,960.067)">
            <text x="732.283px" y="443.105px" style="font-family:'ArialMT', 'Arial', sans-serif;font-size:25px;fill:rgb(175,7,30);">&lt; Min width</text>
        </g>
        <g transform="matrix(1.70448,0,0,1,-67.0612,744.282)">
            <g transform="matrix(0.586689,-0,-0,1,262.286,33.7182)">
                <path d="M749.294,322.35L769.441,332.424L749.294,342.497C754.331,337.46 754.331,327.387 749.294,322.35Z" style="fill:rgb(0,96,196);"/>
                <path d="M619.917,332.424L753.323,332.424" style="fill:none;stroke:rgb(0,96,196);stroke-width:6.72px;"/>
            </g>
        </g>
        <g transform="matrix(1.70448,0,0,1,207.122,1157.48)">
            <g transform="matrix(0.586689,-0,-0,1,101.426,-379.48)">
                <path d="M1023.48,735.549L1043.62,745.622L1023.48,755.696C1028.51,750.659 1028.51,740.585 1023.48,735.549Z" style="fill:rgb(0,96,196);"/>
                <path d="M894.1,745.622L1027.51,745.622" style="fill:none;stroke:rgb(0,96,196);stroke-width:6.72px;"/>
            </g>
        </g>
        <g transform="matrix(1.70448,0,0,1,-63.0416,597.282)">
            <g transform="matrix(0.586689,-0,-0,1,259.927,180.718)">
                <path d="M749.073,112.568L769.441,122.187L749.525,132.71C754.447,127.561 754.222,117.49 749.073,112.568Z" style="fill:rgb(10,148,3);"/>
                <path d="M623.937,202.315L673.543,202.502L672.362,124.362C672.362,124.362 725.73,123.167 753.327,122.548" style="fill:none;stroke:rgb(10,148,3);stroke-width:6.72px;"/>
            </g>
        </g>
        <g transform="matrix(1,0,0,1,-30.3484,1015.75)">
            <path d="M625.984,366.142L668.421,366.142" style="fill:none;"/>
            <g transform="matrix(1,-0,-0,1,410.348,-237.748)">
                <path d="M237.926,593.816L258.073,603.89L237.926,613.963C242.963,608.927 242.963,598.853 237.926,593.816Z" style="fill:rgb(175,7,30);"/>
                <path d="M215.636,603.89L241.955,603.89" style="fill:none;stroke:rgb(175,7,30);stroke-width:6.72px;"/>
            </g>
        </g>
        <g transform="matrix(1,0,0,1,654.022,1022.5)">
            <path d="M625.984,366.142L668.421,366.142" style="fill:none;"/>
            <g transform="matrix(1,-0,-0,1,-274.022,-244.497)">
                <path d="M922.296,600.565L942.443,610.639L922.296,620.712C927.333,615.676 927.333,605.602 922.296,600.565Z" style="fill:rgb(175,7,30);"/>
                <path d="M900.006,610.639L926.325,610.639" style="fill:none;stroke:rgb(175,7,30);stroke-width:6.72px;"/>
            </g>
        </g>
        <g transform="matrix(1,0,0,1,-179.051,1109.86)">
            <text x="732.283px" y="443.105px" style="font-family:'ArialMT', 'Arial', sans-serif;font-size:25px;fill:rgb(0,96,196);">Desired movement</text>
        </g>
        <g transform="matrix(1.70448,0,0,1,-470.276,1157.48)">
            <g transform="matrix(0.586689,-0,-0,1,498.847,-379.48)">
                <path d="M346.079,735.549L366.226,745.622L346.079,755.696C351.116,750.659 351.116,740.585 346.079,735.549Z" style="fill:rgb(0,96,196);"/>
                <path d="M216.703,745.622L350.109,745.622" style="fill:none;stroke:rgb(0,96,196);stroke-width:6.72px;"/>
            </g>
        </g>
        <g transform="matrix(1,-5.24034e-17,1.1189e-16,1,621.679,575.197)">
            <text x="371px" y="307.325px" style="font-family:'Arial-BoldMT', 'Arial', sans-serif;font-weight:700;font-size:33.333px;fill:rgb(10,148,3);stroke:white;stroke-width:0.47px;stroke-linecap:butt;stroke-miterlimit:2;">Autostep</text>
        </g>
        <g transform="matrix(1,-3.87062e-17,7.96123e-17,1,208.018,1061.81)">
            <text x="371px" y="307.325px" style="font-family:'Arial-BoldMT', 'Arial', sans-serif;font-weight:700;font-size:33.333px;fill:rgb(175,7,30);stroke:white;stroke-width:0.32px;stroke-linecap:butt;stroke-miterlimit:2;">Stop</text>
        </g>
        <g transform="matrix(1,-3.87062e-17,7.96123e-17,1,895.004,1070.12)">
            <text x="371px" y="307.325px" style="font-family:'Arial-BoldMT', 'Arial', sans-serif;font-weight:700;font-size:33.333px;fill:rgb(175,7,30);stroke:white;stroke-width:0.32px;stroke-linecap:butt;stroke-miterlimit:2;">Stop</text>
        </g>
        <g id="Capsule12" serif:id="Capsule">
        </g>
        <g id="Capsule13" serif:id="Capsule">
        </g>
    </g>
</svg>
