<?xml version="1.0" encoding="UTF-8" standalone="no"?>
<!DOCTYPE svg PUBLIC "-//W3C//DTD SVG 1.1//EN" "http://www.w3.org/Graphics/SVG/1.1/DTD/svg11.dtd">
<svg width="62px" height="62px" version="1.1" xmlns="http://www.w3.org/2000/svg" xmlns:xlink="http://www.w3.org/1999/xlink" xml:space="preserve" xmlns:serif="http://www.serif.com/" style="fill-rule:evenodd;clip-rule:evenodd;stroke-linejoin:round;stroke-miterlimit:1.41421;">
    <g>
        <g transform="matrix(1,0,0,1,3.83796,-0.715176)">
            <circle cx="13.202" cy="10.391" r="5.428" style="fill:rgb(211,255,224);stroke:rgb(110,85,222);stroke-width:2.25px;"/>
        </g>
        <g transform="matrix(1,0,0,1,4.35198,0)">
            <path d="M32.37,32.574C32.266,32.394 32.15,32.238 32.03,32.092C31.95,31.886 31.857,31.677 31.75,31.469C29.759,27.595 27.681,23.762 25.506,19.99C29.753,18.637 33.635,19.872 36.688,24.148C39.17,27.627 44.98,24.29 42.465,20.772C36.556,12.498 27.746,10.442 18.924,15.678C18.556,15.897 18.261,16.151 18.026,16.428C17.329,16.703 16.678,17.1 16.113,17.593C15.628,17.742 15.185,18.012 14.857,18.432C12.265,21.739 9.797,25.518 11.655,29.761C11.747,29.972 11.856,30.172 11.972,30.362C11.972,30.362 14.659,33.789 20.135,33.783C20.602,33.804 21.083,33.82 21.59,33.82C21.843,33.82 22.088,33.818 22.321,33.812C24.107,33.783 24.91,32.357 24.898,31.049C24.887,29.76 24.112,28.459 22.405,28.459C22.006,28.465 21.665,28.471 21.324,28.471C20.579,28.471 19.599,28.448 18.634,28.266C18.582,28.256 18.404,28.207 18.202,28.149C17.993,28.089 17.748,28.016 17.652,27.997L17.562,28.005C17.339,27.907 17.211,27.78 17.141,27.655L17.142,26.583C17.165,26.513 17.198,26.437 17.227,26.364L18.476,26.836C18.476,26.836 18.539,26.853 18.573,26.863C18.716,26.904 18.841,26.941 18.893,26.953C19.738,27.111 20.637,27.132 21.324,27.132C21.657,27.132 21.99,27.127 22.321,27.121L22.405,27.12C24.898,27.12 26.219,29.091 26.236,31.038C26.253,33.047 24.923,35.103 22.345,35.15C22.103,35.154 21.85,35.156 21.59,35.156C21.337,35.156 21.093,35.15 20.849,35.144C21.116,35.656 21.386,36.166 21.651,36.68C18.618,38.229 15.809,40.159 13.198,42.434C11.656,43.779 11.909,45.54 12.944,46.726C13.195,47.268 13.619,47.762 14.264,48.15C17.718,50.224 21.173,52.297 24.628,54.373C28.336,56.6 31.698,50.813 28.004,48.597C25.771,47.256 23.538,45.916 21.304,44.575C23.455,43.127 25.771,41.929 28.225,41.071C28.633,40.929 28.978,40.735 29.272,40.505C32.589,46.142 35.908,51.776 39.226,57.413C41.412,61.129 47.197,57.764 45.001,54.036C40.791,46.882 36.581,39.727 32.37,32.574Z" style="fill:rgb(211,255,224);fill-rule:nonzero;stroke:rgb(110,85,222);stroke-width:2.25px;"/>
        </g>
        <g transform="matrix(1.57045,0,0,1,1.1743,0.224686)">
            <rect x="0" y="2.94" width="4.916" height="55.863" style="fill:rgb(247,224,255);stroke:rgb(110,85,222);stroke-width:1.71px;"/>
        </g>
        <g transform="matrix(0.846205,0,0,2.38865,8.86254,-29.1418)">
            <rect x="49.254" y="21.278" width="12.714" height="0.669" style="fill:rgb(110,85,222);"/>
        </g>
        <g transform="matrix(1.24352,0,0,2.38865,-18.9976,-19.8417)">
            <rect x="49.254" y="21.278" width="12.714" height="0.669" style="fill:rgb(110,85,222);"/>
        </g>
        <g transform="matrix(1.24352,0,0,2.38865,-15.7585,-11.0417)">
            <rect x="49.254" y="21.278" width="12.714" height="0.669" style="fill:rgb(110,85,222);"/>
        </g>
    </g>
</svg>
