<?xml version="1.0" encoding="UTF-8" standalone="no"?>
<!DOCTYPE svg PUBLIC "-//W3C//DTD SVG 1.1//EN" "http://www.w3.org/Graphics/SVG/1.1/DTD/svg11.dtd">
<svg width="100%" height="100%" viewBox="0 0 60 60" version="1.1" xmlns="http://www.w3.org/2000/svg" xmlns:xlink="http://www.w3.org/1999/xlink" xml:space="preserve" xmlns:serif="http://www.serif.com/" style="fill-rule:evenodd;clip-rule:evenodd;stroke-linejoin:round;stroke-miterlimit:1.41421;">
    <g transform="matrix(0.0644681,0,0,0.0644681,13.5,13.4922)">
        <path d="M83.288,198.693L31.537,330.95L77.537,296.452L113.332,303.534C127.65,266.041 144.161,233.369 162.122,204.81L83.288,198.693Z" style="fill:rgb(97,209,128);fill-rule:nonzero;"/>
    </g>
    <g transform="matrix(0.0644681,0,0,0.0644681,13.5,13.4922)">
        <path d="M313.298,428.71L181.04,480.462L215.538,434.462L208.456,398.667C245.949,384.349 278.621,367.838 307.18,349.877L313.298,428.71Z" style="fill:rgb(97,209,128);fill-rule:nonzero;"/>
    </g>
    <g transform="matrix(0.0644681,0,0,0.0644681,13.5,13.4922)">
        <path d="M139.357,382.011L129.979,372.633C106.284,354.74 71.402,365.15 58.978,392.472L8.533,503.466L119.519,453.02C146.841,440.597 157.259,405.706 139.357,382.011Z" style="fill:rgb(247,224,255);fill-rule:nonzero;"/>
    </g>
    <g transform="matrix(0.0644681,0,0,0.0644681,13.5,13.4922)">
        <path d="M503.066,8.932C503.066,8.932 227.048,-14.072 106.292,302.203L209.802,405.713C526.062,284.95 503.066,8.932 503.066,8.932Z" style="fill:rgb(211,255,224);fill-rule:nonzero;"/>
    </g>
    <g transform="matrix(0.0644681,0,0,0.0644681,13.5,13.4922)">
        <path d="M247.45,264.549L189.948,264.549L117.786,394.204L247.45,315.745L247.45,264.549Z" style="fill:rgb(97,209,128);fill-rule:nonzero;"/>
    </g>
    <g transform="matrix(0.0644681,0,0,0.0644681,13.5,13.4922)">
        <path d="M331.891,44.77L467.22,180.1C509.628,88.048 503.058,8.924 503.058,8.924C503.058,8.924 423.942,2.362 331.891,44.77Z" style="fill:rgb(97,209,128);fill-rule:nonzero;"/>
    </g>
    <g transform="matrix(0.0499767,0,0,0.0499767,18.2062,16.2049)">
        <circle cx="324.757" cy="187.19" r="65.054" style="fill:rgb(247,224,255);"/>
    </g>
    <g transform="matrix(0.0644681,0,0,0.0644681,13.5,13.4922)">
        <path d="M8.533,511.999C6.314,511.999 4.13,511.137 2.5,509.499C-0.017,506.99 -0.708,503.176 0.768,499.934L51.214,388.948C58.484,372.949 72.461,361.293 89.552,356.95C105.653,352.871 122.258,356.105 135.125,365.833C137.574,367.685 138.768,370.628 138.47,373.53C141.363,373.223 144.315,374.417 146.167,376.875C155.894,389.751 159.128,406.364 155.041,422.449C150.698,439.54 139.042,453.517 123.052,460.778L12.066,511.231C10.931,511.743 9.728,511.999 8.533,511.999ZM103.238,372.292C100.098,372.292 96.915,372.685 93.75,373.487C81.71,376.542 71.863,384.75 66.752,395.996L25.718,486.281L115.995,445.247C127.241,440.127 135.45,430.289 138.504,418.249C140.663,409.733 139.869,401.038 136.371,393.513L121.993,401.645C118.665,403.531 114.476,402.968 111.762,400.246C109.049,397.541 108.477,393.352 110.363,390.015L118.486,375.637C113.75,373.427 108.554,372.292 103.238,372.292Z" style="fill:rgb(101,120,132);fill-rule:nonzero;stroke:rgb(101,120,132);stroke-width:11.63px;"/>
    </g>
    <g transform="matrix(0.0644681,0,0,0.0644681,13.5,13.4922)">
        <path d="M471.547,177.024C470.378,179.558 462.8,187.754 461.187,186.141L325.857,50.811C323.886,48.84 322.999,46.024 323.493,43.277C323.988,40.529 325.61,41.159 328.145,39.999C421.17,-2.853 500.447,0.169 503.775,0.434C507.93,0.784 511.224,4.077 511.574,8.233C511.847,11.552 514.407,83.999 471.547,177.024ZM346.738,47.543L464.456,165.261C493.28,97.007 495.2,37.56 494.858,17.158C474.473,16.817 414.838,18.796 346.738,47.543Z" style="fill:rgb(101,120,132);fill-rule:nonzero;stroke:rgb(101,120,132);stroke-width:15.51px;stroke-miterlimit:2;"/>
    </g>
    <g transform="matrix(0.0491648,0,0,0.0491648,18.4706,16.3569)">
        <path d="M324.8,260.751C305.96,260.751 287.111,253.583 272.767,239.231C244.071,210.535 244.071,163.853 272.767,135.157C301.463,106.461 348.145,106.461 376.841,135.157C405.537,163.853 405.537,210.535 376.841,239.231C362.489,253.575 343.649,260.751 324.8,260.751ZM324.8,130.695C310.328,130.695 295.848,136.207 284.833,147.223C262.793,169.263 262.793,205.126 284.833,227.166C306.873,249.206 342.736,249.206 364.776,227.166C386.816,205.126 386.816,169.263 364.776,147.223C353.752,136.207 339.271,130.695 324.8,130.695Z" style="fill:rgb(101,120,132);fill-rule:nonzero;stroke:rgb(101,120,132);stroke-width:20.34px;stroke-miterlimit:2;"/>
    </g>
    <g transform="matrix(0.0644681,0,0,0.0644681,13.5,13.4922)">
        <path d="M31.537,339.483C29.72,339.483 27.894,338.903 26.375,337.742C23.337,335.43 22.202,331.394 23.593,327.844L75.344,195.586C76.701,192.122 80.139,189.818 83.86,190.185L155.646,194.972C158.641,195.168 161.312,196.926 162.677,199.605C164.042,202.276 163.897,205.476 162.302,208.018C143.863,237.345 127.693,270.06 114.263,305.24C112.778,309.139 108.7,311.375 104.621,310.564L79.611,305.564L36.657,337.775C35.138,338.92 33.338,339.483 31.537,339.483ZM88.954,207.626L50.412,306.128L72.418,289.626C74.363,288.175 76.838,287.612 79.21,288.082L100.934,292.425C112.368,263.473 125.628,236.186 140.475,211.057L88.954,207.626Z" style="fill:rgb(101,120,132);fill-rule:nonzero;stroke:rgb(101,120,132);stroke-width:11.63px;"/>
    </g>
    <g transform="matrix(0.0644681,0,0,0.0644681,13.5,13.4922)">
        <path d="M209.795,414.239C207.568,414.239 205.392,413.369 203.762,411.739L163.189,371.166C161.354,369.331 160.45,366.763 160.74,364.186C161.03,361.609 162.472,359.305 164.665,357.914L238.917,311.035L238.917,273.073L194.99,273.073L154.34,346.881C153.043,349.228 150.722,350.832 148.068,351.216C145.397,351.574 142.735,350.704 140.832,348.801L100.259,308.228C97.878,305.847 97.119,302.298 98.322,299.149C219.949,-19.413 500.942,0.203 503.775,0.425C507.93,0.775 511.224,4.068 511.574,8.224C511.813,11.048 531.421,292.041 212.842,413.675C211.852,414.06 210.819,414.239 209.795,414.239ZM182.806,366.652L211.903,395.749C368.351,334.407 436.869,233.695 466.811,159.613C493.339,93.97 495.165,37.091 494.85,17.193C450.608,16.57 223.022,27.714 116.251,300.097L144.861,328.716L182.465,260.437C183.967,257.715 186.825,256.017 189.94,256.017L247.451,256.017C252.161,256.017 255.984,259.84 255.984,264.55L255.984,315.747C255.984,318.674 254.482,321.396 252.008,322.966L182.806,366.652Z" style="fill:rgb(101,120,132);fill-rule:nonzero;stroke:rgb(101,120,132);stroke-width:11.63px;"/>
    </g>
    <g transform="matrix(0.0644681,0,0,0.0644681,13.5,13.4922)">
        <path d="M181.048,488.994C178.437,488.994 175.903,487.791 174.256,485.624C171.944,482.586 171.935,478.388 174.222,475.333L206.433,432.388L201.433,407.378C200.614,403.291 202.866,399.212 206.757,397.736C241.938,384.305 274.644,368.136 303.979,349.697C306.522,348.093 309.722,347.956 312.392,349.322C315.071,350.687 316.829,353.358 317.034,356.362L321.821,428.157C322.068,431.869 319.884,435.316 316.42,436.673L184.162,488.424C183.139,488.798 182.089,488.994 181.048,488.994ZM219.565,411.065L223.908,432.781C224.386,435.162 223.823,437.636 222.372,439.573L205.87,461.579L304.372,423.037L300.933,371.525C275.805,386.371 248.525,399.631 219.565,411.065Z" style="fill:rgb(101,120,132);fill-rule:nonzero;stroke:rgb(101,120,132);stroke-width:11.63px;"/>
    </g>
    <g transform="matrix(0.0644681,0,0,0.0644681,13.5,13.4922)">
        <path d="M117.795,402.737C115.645,402.737 113.503,401.918 111.873,400.348C109.091,397.669 108.46,393.436 110.337,390.057L182.499,260.393C184.009,257.688 186.859,256.007 189.957,256.007L247.451,256.007C252.161,256.007 255.984,259.83 255.984,264.54L255.984,315.737C255.984,318.723 254.422,321.488 251.871,323.033L122.207,401.5C120.841,402.336 119.314,402.737 117.795,402.737ZM194.965,273.081L140.884,370.261L238.917,310.933L238.917,273.073L194.965,273.073L194.965,273.081Z" style="fill:rgb(101,120,132);fill-rule:nonzero;stroke:rgb(101,120,132);stroke-width:11.63px;"/>
    </g>
</svg>
