<?xml version="1.0" encoding="UTF-8" standalone="no"?>
<!DOCTYPE svg PUBLIC "-//W3C//DTD SVG 1.1//EN" "http://www.w3.org/Graphics/SVG/1.1/DTD/svg11.dtd">
<svg width="100%" height="100%" viewBox="0 0 60 60" version="1.1" xmlns="http://www.w3.org/2000/svg" xmlns:xlink="http://www.w3.org/1999/xlink" xml:space="preserve" xmlns:serif="http://www.serif.com/" style="fill-rule:evenodd;clip-rule:evenodd;stroke-linejoin:round;stroke-miterlimit:1.41421;">
    <g transform="matrix(0.0648665,0,0,0.0648665,13.8168,13.6808)">
        <path d="M252.5,14.592C391.859,14.592 488.437,113.141 488.437,252.5C488.437,391.859 391.859,488.571 252.5,488.571C113.141,488.571 10.532,391.859 10.532,252.5C10.532,113.141 113.141,14.592 252.5,14.592ZM252.5,53C362.607,53 452,142.393 452,252.5C452,362.607 362.607,452 252.5,452C142.393,452 53,362.607 53,252.5C53,142.393 142.393,53 252.5,53Z" style="fill:rgb(101,120,132);"/>
    </g>
    <g transform="matrix(0.0648665,0,0,0.0648665,13.8168,13.6808)">
        <path d="M252.5,398.4C172,398.4 106.6,332.9 106.6,252.5C106.6,172.1 172,106.6 252.5,106.6C333,106.6 398.4,172 398.4,252.5C398.4,333 333,398.4 252.5,398.4ZM252.5,118.4C178.6,118.4 118.4,178.6 118.4,252.5C118.4,326.4 178.6,386.6 252.5,386.6C326.4,386.6 386.6,326.4 386.6,252.5C386.6,178.6 326.4,118.4 252.5,118.4Z" style="fill:rgb(97,209,128);fill-rule:nonzero;"/>
    </g>
    <g transform="matrix(0.0648665,0,0,0.0648665,13.8168,13.6808)">
        <path d="M252.5,335.1C207,335.1 169.9,298.1 169.9,252.5C169.9,207 206.9,169.9 252.5,169.9C298.1,169.9 335.1,206.9 335.1,252.5C335.1,298 298,335.1 252.5,335.1ZM252.5,181.8C213.5,181.8 181.8,213.5 181.8,252.5C181.8,291.5 213.5,323.2 252.5,323.2C291.5,323.2 323.2,291.5 323.2,252.5C323.2,213.5 291.5,181.8 252.5,181.8Z" style="fill:rgb(97,209,128);fill-rule:nonzero;"/>
    </g>
    <g transform="matrix(0.0648665,0,0,0.0648665,13.8168,13.6808)">
        <path d="M252.5,284C235.1,284 221,269.9 221,252.5C221,235.1 235.1,221 252.5,221C269.9,221 284,235.1 284,252.5C284,269.9 269.8,284 252.5,284ZM252.5,232.9C241.7,232.9 232.9,241.7 232.9,252.5C232.9,263.3 241.7,272.1 252.5,272.1C263.3,272.1 272.1,263.3 272.1,252.5C272.1,241.7 263.3,232.9 252.5,232.9Z" style="fill:rgb(97,209,128);fill-rule:nonzero;"/>
    </g>
    <g transform="matrix(0.0648665,0,0,0.0648665,13.8168,13.6808)">
        <circle cx="127.8" cy="191" r="20.1" style="fill:rgb(247,224,255);stroke:rgb(101,120,132);stroke-width:10.79px;"/>
    </g>
    <g transform="matrix(0.0648665,0,0,0.0648665,13.8168,13.6808)">
        <circle cx="328.9" cy="252.5" r="20.1" style="fill:rgb(247,224,255);stroke:rgb(101,120,132);stroke-width:10.79px;"/>
    </g>
    <g transform="matrix(0.0648665,0,0,0.0648665,13.8168,13.6808)">
        <circle cx="324.6" cy="372.4" r="20.1" style="fill:rgb(247,224,255);stroke:rgb(101,120,132);stroke-width:10.79px;"/>
    </g>
    <g transform="matrix(0.0648665,0,0,0.0648665,13.8168,13.6808)">
        <path d="M412.9,134L252.5,252.5L328.1,67.9C362.1,81.8 391.4,104.9 412.9,134Z" style="fill:rgb(97,209,128);fill-rule:nonzero;"/>
    </g>
</svg>
