<?xml version="1.0" encoding="UTF-8" standalone="no"?>
<!DOCTYPE svg PUBLIC "-//W3C//DTD SVG 1.1//EN" "http://www.w3.org/Graphics/SVG/1.1/DTD/svg11.dtd">
<svg width="100%" height="100%" viewBox="0 0 60 60" version="1.1" xmlns="http://www.w3.org/2000/svg" xmlns:xlink="http://www.w3.org/1999/xlink" xml:space="preserve" xmlns:serif="http://www.serif.com/" style="fill-rule:evenodd;clip-rule:evenodd;stroke-linejoin:round;stroke-miterlimit:2;">
    <g transform="matrix(0.083974,0,0,0.083974,8.5,8.49981)">
        <path d="M18.064,193.007L30.928,242.367C33.728,253.199 36.336,263.247 38.144,273.279L38.752,273.279C40.96,263.439 44.16,253.007 47.36,242.575L63.232,193.023L78.048,193.023L93.12,241.583C96.72,253.215 99.536,263.455 101.728,273.295L102.336,273.295C103.936,263.455 106.576,253.215 109.792,241.791L123.616,193.039L141.088,193.039L109.792,290.159L93.712,290.159L78.848,243.807C75.44,232.991 72.64,223.359 70.24,211.919L69.824,211.919C67.424,223.551 64.416,233.599 61.008,244.015L45.344,290.175L29.328,290.175L0,193.007L18.064,193.007Z" style="fill:rgb(101,120,132);fill-rule:nonzero;"/>
    </g>
    <g transform="matrix(0.083974,0,0,0.083974,8.5,8.49981)">
        <path d="M168.064,193.007L180.928,242.367C183.728,253.199 186.336,263.247 188.144,273.279L188.752,273.279C190.96,263.439 194.16,253.007 197.36,242.575L213.232,193.023L228.048,193.023L243.12,241.583C246.72,253.215 249.536,263.455 251.728,273.295L252.336,273.295C253.936,263.455 256.576,253.215 259.792,241.791L273.616,193.039L291.088,193.039L259.792,290.159L243.728,290.159L228.864,243.807C225.456,232.991 222.656,223.359 220.256,211.919L219.856,211.919C217.456,223.551 214.448,233.599 211.04,244.015L195.376,290.175L179.344,290.175L150.016,193.055L168.064,193.055L168.064,193.007Z" style="fill:rgb(101,120,132);fill-rule:nonzero;"/>
    </g>
    <g transform="matrix(0.083974,0,0,0.083974,8.5,8.49981)">
        <path d="M318.112,193.007L330.928,242.367C333.728,253.199 336.336,263.247 338.144,273.279L338.752,273.279C340.96,263.439 344.208,253.007 347.408,242.575L363.232,193.023L378.096,193.023L393.168,241.583C396.768,253.215 399.584,263.455 401.776,273.295L402.384,273.295C403.984,263.455 406.592,253.215 409.792,241.791L423.648,193.039L441.072,193.039L409.776,290.159L393.744,290.159L378.88,243.807C375.472,232.991 372.672,223.359 370.272,211.919L369.872,211.919C367.472,223.551 364.416,233.599 361.024,244.015L345.392,290.175L329.328,290.175L300.048,193.055L318.112,193.055L318.112,193.007Z" style="fill:rgb(101,120,132);fill-rule:nonzero;"/>
    </g>
    <g transform="matrix(0.083974,0,0,0.083974,8.5,8.49981)">
        <path d="M366.448,369.007C324.816,369.007 285.36,348.879 260.88,315.167L272.496,306.719C294.288,336.751 329.408,354.671 366.448,354.671C430.416,354.671 482.48,302.607 482.48,238.639C482.48,174.671 430.416,122.607 366.448,122.607C323.52,122.607 284.272,146.159 264.016,184.079L251.36,177.311C274.112,134.719 318.208,108.255 366.448,108.255C438.336,108.255 496.816,166.735 496.816,238.623C496.816,310.511 438.336,369.007 366.448,369.007Z" style="fill:rgb(97,209,128);fill-rule:nonzero;"/>
    </g>
    <g transform="matrix(-0.0593109,-0.0594452,0.0594452,-0.0593109,54.8817,89.5653)">
        <rect x="433.141" y="360.939" width="86.559" height="14.336" style="fill:rgb(97,209,128);"/>
    </g>
</svg>
