<?xml version="1.0" encoding="UTF-8" standalone="no"?>
<!DOCTYPE svg PUBLIC "-//W3C//DTD SVG 1.1//EN" "http://www.w3.org/Graphics/SVG/1.1/DTD/svg11.dtd">
<svg width="100%" height="100%" viewBox="0 0 60 60" version="1.1" xmlns="http://www.w3.org/2000/svg" xmlns:xlink="http://www.w3.org/1999/xlink" xml:space="preserve" xmlns:serif="http://www.serif.com/" style="fill-rule:evenodd;clip-rule:evenodd;stroke-linecap:round;stroke-linejoin:round;stroke-miterlimit:1.5;">
    <g transform="matrix(0.123323,0,0,0.123323,-13.1412,-13.1394)">
        <path d="M219.758,504.451L490.582,504.426L506.815,486.577L500.842,462.703L482.742,455.076L465.718,454.983L465.718,386.042L414.42,385.201L413.213,454.378L346.024,454.567L346.024,349.809L333.576,332.121L314.359,319.638L270.028,276.321L270.028,268.89L409.085,256L419.487,268.167L419.487,292.172L457.485,297.732L457.485,268.675L478.004,238.323L472.051,212.991L448.695,195.937L425.82,196.134L407.759,212.991L401.401,218.1L245.234,221.73L213.031,224.175L195.169,250.989L195.169,276.321L218.538,291.571L238.363,296.226L263.695,334.396L256,357.28L256,454.782L213.031,456.75L195.169,473.911L200.894,495.488L219.758,504.451Z" style="fill:rgb(211,255,224);stroke:black;stroke-width:6.08px;"/>
    </g>
    <g transform="matrix(0.078125,0,0,0.078125,10,10)">
        <path d="M438.942,451.898C433.424,451.898 428.945,456.377 428.945,461.895C428.945,467.413 433.424,471.892 438.942,471.892C444.46,471.892 448.939,467.413 448.939,461.895C448.939,456.377 444.46,451.898 438.942,451.898Z" style="fill:rgb(97,209,128);fill-rule:nonzero;stroke:rgb(101,120,132);stroke-width:5.12px;stroke-linecap:butt;stroke-miterlimit:1.41421;"/>
    </g>
    <g transform="matrix(0.078125,0,0,0.078125,10,10)">
        <path d="M375.962,451.898C370.444,451.898 365.965,456.377 365.965,461.895C365.965,467.413 370.444,471.892 375.962,471.892C381.48,471.892 385.959,467.413 385.959,461.895C385.959,456.377 381.48,451.898 375.962,451.898Z" style="fill:rgb(97,209,128);fill-rule:nonzero;stroke:rgb(101,120,132);stroke-width:5.12px;stroke-linecap:butt;stroke-miterlimit:1.41421;"/>
    </g>
    <g transform="matrix(0.078125,0,0,0.078125,10,10)">
        <path d="M315.981,451.898C310.463,451.898 305.984,456.377 305.984,461.895C305.984,467.413 310.463,471.892 315.981,471.892C321.499,471.892 325.978,467.413 325.978,461.895C325.978,456.377 321.499,451.898 315.981,451.898Z" style="fill:rgb(97,209,128);fill-rule:nonzero;stroke:rgb(101,120,132);stroke-width:5.12px;stroke-linecap:butt;stroke-miterlimit:1.41421;"/>
    </g>
    <g transform="matrix(0.078125,0,0,0.078125,10,10)">
        <path d="M250.002,451.898C244.484,451.898 240.005,456.377 240.005,461.895C240.005,467.413 244.484,471.892 250.002,471.892C255.52,471.892 259.999,467.413 259.999,461.895C259.999,456.377 255.52,451.898 250.002,451.898Z" style="fill:rgb(97,209,128);fill-rule:nonzero;stroke:rgb(101,120,132);stroke-width:5.12px;stroke-linecap:butt;stroke-miterlimit:1.41421;"/>
    </g>
    <g transform="matrix(0.078125,0,0,0.078125,10,10)">
        <path d="M190.021,451.898C184.503,451.898 180.024,456.377 180.024,461.895C180.024,467.413 184.503,471.892 190.021,471.892C195.539,471.892 200.018,467.413 200.018,461.895C200.018,456.377 195.539,451.898 190.021,451.898Z" style="fill:rgb(97,209,128);fill-rule:nonzero;stroke:rgb(101,120,132);stroke-width:5.12px;stroke-linecap:butt;stroke-miterlimit:1.41421;"/>
    </g>
    <g transform="matrix(0.078125,0,0,0.078125,10,10)">
        <path d="M130.04,451.898C124.522,451.898 120.043,456.377 120.043,461.895C120.043,467.413 124.522,471.892 130.04,471.892C135.558,471.892 140.037,467.413 140.037,461.895C140.037,456.377 135.558,451.898 130.04,451.898Z" style="fill:rgb(97,209,128);fill-rule:nonzero;stroke:rgb(101,120,132);stroke-width:5.12px;stroke-linecap:butt;stroke-miterlimit:1.41421;"/>
    </g>
    <g transform="matrix(0.078125,0,0,0.078125,10,10)">
        <path d="M70.059,451.898C64.541,451.898 60.062,456.377 60.062,461.895C60.062,467.413 64.541,471.892 70.059,471.892C75.577,471.892 80.056,467.413 80.056,461.895C80.056,456.377 75.577,451.898 70.059,451.898Z" style="fill:rgb(97,209,128);fill-rule:nonzero;stroke:rgb(101,120,132);stroke-width:5.12px;stroke-linecap:butt;stroke-miterlimit:1.41421;"/>
    </g>
    <g transform="matrix(0.078125,0,0,0.078125,10,10)">
        <path d="M461.935,411.83L448.939,411.83L448.939,309.943C448.939,304.422 444.463,299.946 438.942,299.946L355.968,299.946C350.447,299.946 345.971,304.422 345.971,309.943L345.971,411.83L259.998,411.83L259.998,279.952C259.998,262.376 254.405,245.697 243.822,231.719C234.099,218.876 220.481,209.133 205.275,204.068L139.663,141.646L343.932,116.798C347.526,120.802 351.549,124.357 355.967,127.432L355.967,159.99L345.97,159.99C342.183,159.99 338.722,162.129 337.029,165.516L317.035,205.503C315.111,209.352 315.865,214 318.907,217.042L358.894,257.029C362.798,260.933 369.128,260.933 373.033,257.029C376.937,253.125 376.937,246.795 373.033,242.89L338.14,207.998L352.149,179.982L439.761,179.982L453.77,207.998L418.877,242.89C414.973,246.794 414.973,253.124 418.877,257.029C420.829,258.981 423.388,259.957 425.946,259.957C428.504,259.957 431.063,258.981 433.015,257.029L473.002,217.042C476.044,213.999 476.799,209.351 474.874,205.503L454.88,165.516C453.187,162.129 449.725,159.99 445.939,159.99L435.942,159.99L435.942,127.436C454.572,114.428 465.932,92.939 465.932,70.018C465.932,31.432 434.54,0.04 395.954,0.04C369.977,0.04 346.462,14.29 334.336,36.841L90.729,42.03C89.852,42.049 89.01,42.191 88.205,42.42C82.3,40.841 76.217,40.028 70.059,40.028C31.473,40.028 0.081,71.42 0.081,110.006C0.081,147.286 29.386,177.845 66.169,179.87L111.62,238.527C104.037,250.983 100.05,265.154 100.05,279.952L100.05,411.829L50.065,411.829C36.697,411.829 24.126,417.038 14.668,426.497C5.209,435.956 0,448.526 0,461.895C0,489.501 22.459,511.96 50.065,511.96L461.935,511.96C475.303,511.96 487.874,506.751 497.332,497.292C506.791,487.834 512,475.263 512,461.895C512,434.289 489.541,411.83 461.935,411.83ZM415.95,159.99L375.962,159.99L375.962,137.08C382.419,139.001 389.156,139.996 395.956,139.996C402.756,139.996 409.493,139.001 415.95,137.08L415.95,159.99ZM349.882,50.598C349.882,50.597 349.883,50.596 349.883,50.595C357.722,32.03 375.806,20.035 395.955,20.035C423.516,20.035 445.939,42.458 445.939,70.019C445.939,87.809 436.36,104.401 420.938,113.32C413.383,117.693 404.744,120.003 395.955,120.003C387.166,120.003 378.526,117.692 370.97,113.319C365.153,109.954 360.15,105.535 356.096,100.176C349.473,91.444 345.972,81.015 345.972,70.019C345.973,63.271 347.288,56.737 349.882,50.598ZM365.965,319.94L428.945,319.94L428.945,411.911L365.965,411.911L365.965,319.94ZM197.158,222.46C197.164,222.462 197.171,222.464 197.178,222.466C222.394,229.967 240.005,253.606 240.005,279.953C240.005,313.027 213.098,339.934 180.024,339.934C146.95,339.934 120.043,313.026 120.043,279.953C120.043,266.904 124.16,254.504 131.95,244.089C143.4,228.762 160.923,219.972 180.024,219.972C185.884,219.971 191.648,220.808 197.158,222.46ZM240.005,332.767L240.005,411.911L120.043,411.911L120.043,332.767C134.709,349.403 156.155,359.927 180.024,359.927C203.893,359.927 225.339,349.402 240.005,332.767ZM327.201,56.991C326.398,61.255 325.978,65.603 325.978,70.018C325.978,79.849 327.987,89.354 331.848,98.127L139.069,121.578C139.701,117.78 140.037,113.919 140.037,110.006C140.037,91.429 132.722,74.153 120.418,61.395L327.201,56.991ZM68.035,159.938C41.409,158.872 20.074,136.888 20.074,110.006C20.074,82.445 42.497,60.022 70.058,60.022C75.541,60.022 80.94,60.905 86.104,62.646C106.404,69.522 120.042,88.554 120.042,110.006C120.042,116.754 118.726,123.288 116.129,129.432C115.446,131.049 114.65,132.683 113.775,134.266C105.517,149.11 90.188,158.742 73.285,159.86C71.573,159.424 69.761,159.441 68.035,159.938ZM89.422,177.238C102.948,173.322 115.084,165.372 124.103,154.438L172.369,200.357C154.393,202.11 137.437,209.977 124.467,222.465L89.422,177.238ZM483.079,483.04C477.428,488.691 469.918,491.804 461.935,491.804L50.065,491.804C33.572,491.804 20.156,478.387 20.156,461.894C20.156,453.911 23.269,446.401 28.921,440.749C34.572,435.098 42.082,431.985 50.065,431.985L110.046,431.985C110.46,431.985 110.866,431.953 111.267,431.904L248.782,431.904C249.183,431.953 249.589,431.985 250.003,431.985L355.969,431.985C356.383,431.985 356.789,431.953 357.19,431.904L437.724,431.904C438.125,431.953 438.531,431.985 438.945,431.985L461.938,431.985C478.43,431.985 491.847,445.402 491.847,461.895C491.844,469.878 488.731,477.388 483.079,483.04Z" style="fill:rgb(101,120,132);fill-rule:nonzero;"/>
    </g>
    <g transform="matrix(0.078125,0,0,0.078125,10,10)">
        <path d="M395.956,40.028C379.419,40.028 365.965,53.482 365.965,70.019C365.965,86.556 379.419,100.009 395.956,100.009C412.493,100.009 425.946,86.555 425.946,70.019C425.946,53.482 412.492,40.028 395.956,40.028ZM395.956,80.016C390.444,80.016 385.959,75.531 385.959,70.019C385.959,64.507 390.444,60.022 395.956,60.022C401.468,60.022 405.953,64.507 405.953,70.019C405.953,75.531 401.468,80.016 395.956,80.016Z" style="fill:rgb(97,209,128);fill-rule:nonzero;stroke:rgb(101,120,132);stroke-width:5.12px;stroke-linecap:butt;stroke-miterlimit:1.41421;"/>
    </g>
    <g transform="matrix(0.078125,0,0,0.078125,10,10)">
        <path d="M70.059,80.016C53.522,80.016 40.068,93.47 40.068,110.007C40.068,126.544 53.522,139.997 70.059,139.997C86.596,139.997 100.05,126.543 100.05,110.007C100.049,93.469 86.596,80.016 70.059,80.016ZM70.059,120.003C64.547,120.003 60.062,115.518 60.062,110.006C60.062,104.494 64.547,100.009 70.059,100.009C75.571,100.009 80.056,104.494 80.056,110.006C80.056,115.518 75.571,120.003 70.059,120.003Z" style="fill:rgb(97,209,128);fill-rule:nonzero;stroke:rgb(101,120,132);stroke-width:5.12px;stroke-linecap:butt;stroke-miterlimit:1.41421;"/>
    </g>
    <g transform="matrix(0.078125,0,0,0.078125,10,10)">
        <path d="M180.024,239.965C157.975,239.965 140.037,257.902 140.037,279.952C140.037,302.001 157.975,319.939 180.024,319.939C202.073,319.939 220.011,302.001 220.011,279.952C220.011,257.903 202.073,239.965 180.024,239.965ZM180.024,299.946C168.999,299.946 160.03,290.977 160.03,279.952C160.03,268.928 168.999,259.958 180.024,259.958C191.048,259.958 200.018,268.927 200.018,279.952C200.018,290.977 191.049,299.946 180.024,299.946Z" style="fill:rgb(97,209,128);fill-rule:nonzero;stroke:rgb(101,120,132);stroke-width:5.12px;stroke-linecap:butt;stroke-miterlimit:1.41421;"/>
    </g>
    <g transform="matrix(0.123323,0,0,0.123323,-13.1412,-13.1394)">
        <rect x="419.487" y="390.315" width="39.898" height="57.998" style="fill:rgb(247,224,255);"/>
    </g>
</svg>
