<?xml version="1.0" encoding="UTF-8" standalone="no"?>
<!DOCTYPE svg PUBLIC "-//W3C//DTD SVG 1.1//EN" "http://www.w3.org/Graphics/SVG/1.1/DTD/svg11.dtd">
<svg width="100%" height="100%" viewBox="0 0 60 60" version="1.1" xmlns="http://www.w3.org/2000/svg" xmlns:xlink="http://www.w3.org/1999/xlink" xml:space="preserve" xmlns:serif="http://www.serif.com/" style="fill-rule:evenodd;clip-rule:evenodd;stroke-linejoin:round;stroke-miterlimit:1.41421;">
    <g transform="matrix(0.480652,0,0,0.462001,10.7579,11.6271)">
        <path d="M67.721,79.427C67.7,79.287 67.581,79.019 67.649,79.019C66.1,76.813 59.467,71.588 59.379,70.744C59.28,69.853 57.432,66.639 55.241,64.547C54.303,63.066 54.216,61.932 53.17,60.414C52.135,58.907 50.192,55.816 49.038,54.211L41.242,49.302C40.108,48.701 33.596,48.919 24.524,39.324L24.221,33.525C23.007,32.039 20.472,28.476 20.097,27.319C17.704,20.199 19.291,14.376 18.023,4.577L13.427,1.498L7.924,0.441C6.068,-0.338 1.544,0.153 1.544,0.153L1.544,79.536L67.896,79.536L67.721,79.427Z" style="fill:rgb(247,224,255);fill-rule:nonzero;stroke:rgb(101,120,132);stroke-width:5.3px;"/>
    </g>
    <g transform="matrix(0.480652,0,0,0.462001,11.0123,11.6136)">
        <path d="M36.631,29.392C37.103,30.754 38.19,30.94 36.631,31.461L32.499,33.529L28.369,29.392C27.818,27.774 28.496,26.735 30.438,25.257L34.573,27.318C35.072,27.955 36.471,28.915 36.631,29.392ZM32.499,12.842C31.254,12.234 29.757,12.381 28.369,12.842C27.637,13.08 27.15,14.173 26.296,14.91L26.296,21.114L32.499,19.045C34.208,17.106 34.977,16.119 34.573,14.91C34.244,13.951 33.757,13.474 32.499,12.842ZM49.509,21.179L49.043,21.119C48.805,21.199 47.034,19.713 44.916,19.05C43.889,18.7 43.878,19.454 42.84,19.05C41.377,19.55 41.131,20.774 40.766,23.187C40.416,25.611 39.961,29.031 40.766,31.459C40.989,32.116 42.022,32.704 42.84,33.527L44.916,35.593L46.977,35.593C49.67,34.417 50.696,31.6 51.11,31.458C52.084,30.875 52.839,29.146 53.181,27.32C53.512,25.487 53.75,24.891 53.181,23.185C52.528,21.247 50.809,20.75 49.509,21.179ZM47.743,39.82L47.743,43.958C48.773,44.875 49.861,45.724 51.881,46.029L56.013,43.958L53.942,37.752L47.743,39.82ZM73.861,39.732C71.096,36.672 69.626,36.307 65.582,37.659L63.516,37.659C61.6,39.354 60.715,40.665 59.384,43.865C58.084,46.92 56.733,50.379 57.313,52.135C57.365,52.275 59.001,54.076 61.445,56.272C64.029,58.401 65.266,59.695 65.578,60.41L73.852,58.333C74.743,58.044 78.197,50.686 77.984,50.069C76.326,45.082 75.545,41.635 73.861,39.732Z" style="fill:rgb(211,255,224);fill-rule:nonzero;stroke:rgb(101,120,132);stroke-width:3.71px;"/>
    </g>
</svg>
