<?xml version="1.0" encoding="UTF-8" standalone="no"?>
<!DOCTYPE svg PUBLIC "-//W3C//DTD SVG 1.1//EN" "http://www.w3.org/Graphics/SVG/1.1/DTD/svg11.dtd">
<svg width="100%" height="100%" viewBox="0 0 22 22" version="1.1" xmlns="http://www.w3.org/2000/svg" xmlns:xlink="http://www.w3.org/1999/xlink" xml:space="preserve" xmlns:serif="http://www.serif.com/" style="fill-rule:evenodd;clip-rule:evenodd;stroke-linecap:round;stroke-linejoin:round;stroke-miterlimit:1.5;">
    <g transform="matrix(0.794568,0,0,0.794568,2.26959,2.2671)">
        <path d="M3.878,5.109L8.217,3.588L13.031,3.622L18.417,5.209L16.67,9.611L16.794,13.087L17.886,15.934L18.146,16.744L13.166,17.965L9.736,18.146L7.491,17.76L3.766,16.76L5.647,11.846L5.359,9.045L3.878,5.109Z" style="fill:rgb(247,224,255);stroke:rgb(247,224,255);stroke-width:0.25px;"/>
    </g>
    <g transform="matrix(0.794568,0,0,0.794568,2.26959,2.2671)">
        <path d="M10.957,2.979C8.291,3.004 5.639,3.703 3,5C6.107,10.003 5.048,13.228 3,17C8.611,19.98 13.967,19.345 19,17C16.492,13.12 16.278,9.797 19,5C16.303,3.601 13.623,2.953 10.957,2.979ZM10.715,3.992C11.594,3.967 12.488,4.041 13.396,4.203C13.107,5.368 12.881,6.53 12.732,7.688C12.295,7.648 11.855,7.616 11.404,7.605C10.696,7.589 9.966,7.627 9.223,7.691C9.076,6.546 8.853,5.398 8.568,4.246C9.278,4.114 9.991,4.013 10.715,3.992ZM14.373,4.42C15.443,4.683 16.533,5.054 17.648,5.555C17.158,6.499 16.791,7.446 16.543,8.389C15.627,8.147 14.692,7.943 13.725,7.809C13.87,6.685 14.09,5.555 14.373,4.42ZM7.588,4.445C7.867,5.566 8.084,6.681 8.229,7.789C7.34,7.912 6.416,8.116 5.471,8.377C5.21,7.482 4.833,6.545 4.328,5.564C5.409,5.103 6.493,4.72 7.588,4.445ZM11.01,8.604C11.56,8.603 12.099,8.628 12.629,8.676C12.481,10.267 12.471,11.85 12.607,13.424C11.562,13.518 10.477,13.52 9.35,13.422C9.485,11.85 9.473,10.268 9.326,8.68C9.898,8.629 10.459,8.604 11.01,8.604ZM8.332,8.781C8.474,10.306 8.484,11.819 8.355,13.322C7.504,13.202 6.617,13.004 5.705,12.75C5.761,12.474 5.821,12.202 5.854,11.912C5.942,11.113 5.889,10.255 5.709,9.35C6.611,9.099 7.489,8.901 8.332,8.781ZM13.621,8.799C14.551,8.932 15.454,9.131 16.344,9.369C16.148,10.505 16.13,11.632 16.301,12.742C15.417,12.976 14.52,13.172 13.598,13.303C13.471,11.811 13.482,10.311 13.621,8.799ZM5.463,13.717C6.418,13.981 7.351,14.191 8.248,14.314C8.112,15.383 7.892,16.446 7.607,17.504C6.493,17.252 5.415,16.896 4.357,16.449C4.775,15.588 5.17,14.688 5.463,13.717ZM16.49,13.723C16.726,14.643 17.09,15.549 17.594,16.434C16.454,16.906 15.375,17.243 14.342,17.479C14.059,16.421 13.842,15.36 13.707,14.293C14.662,14.16 15.585,13.959 16.49,13.723ZM9.24,14.41C10.443,14.514 11.601,14.512 12.715,14.412C12.852,15.5 13.073,16.582 13.357,17.66C11.657,17.941 10.08,17.932 8.588,17.695C8.878,16.605 9.101,15.51 9.24,14.41Z" style="fill:rgb(97,209,128);fill-rule:nonzero;stroke:rgb(101,120,132);stroke-width:0.63px;stroke-linecap:butt;stroke-miterlimit:1.41421;"/>
    </g>
    <g transform="matrix(0.885648,0,0,0.885648,0.200755,2.07982)">
        <path d="M19.111,10.551L19.111,11.206L18.103,10.199L19.111,9.192L19.111,9.846L21.227,9.846L21.227,10.551L19.111,10.551Z" style="fill:rgb(101,120,132);"/>
    </g>
    <g transform="matrix(-0.87759,0,0,0.87759,21.6282,1.94805)">
        <path d="M19.111,10.551L19.111,11.206L18.103,10.199L19.111,9.192L19.111,9.846L21.227,9.846L21.227,10.551L19.111,10.551Z" style="fill:rgb(101,120,132);"/>
    </g>
</svg>
