<?xml version="1.0" encoding="utf-8"?>
<!-- Generator: Adobe Illustrator 24.0.2, SVG Export Plug-In . SVG Version: 6.00 Build 0)  -->
<svg version="1.1" id="Слой_1" xmlns="http://www.w3.org/2000/svg" xmlns:xlink="http://www.w3.org/1999/xlink" x="0px" y="0px"
	 viewBox="0 0 1080 750" style="enable-background:new 0 0 1080 750;" xml:space="preserve">
<style type="text/css">
	.st0{fill:url(#SVGID_1_);}
	.st1{fill:url(#SVGID_2_);}
	.st2{fill:url(#SVGID_3_);}
	.st3{fill:url(#SVGID_4_);}
	.st4{fill:url(#SVGID_5_);}
	.st5{fill:#FFFFFF;}
	.st6{fill:url(#SVGID_6_);}
	.st7{fill:url(#SVGID_7_);}
	.st8{fill:url(#SVGID_8_);}
	.st9{fill:url(#SVGID_9_);}
	.st10{fill:url(#SVGID_10_);}
	.st11{fill:url(#SVGID_11_);}
	.st12{fill:url(#SVGID_12_);}
	.st13{fill:url(#SVGID_13_);}
	.st14{fill:url(#SVGID_14_);}
	.st15{fill:url(#SVGID_15_);}
	.st16{fill:url(#SVGID_16_);}
	.st17{fill:url(#SVGID_17_);}
	.st18{fill:url(#SVGID_18_);}
	.st19{fill:url(#SVGID_19_);}
	.st20{fill:url(#SVGID_20_);}
	.st21{fill:url(#SVGID_21_);}
	.st22{fill:url(#SVGID_22_);}
	.st23{fill:url(#SVGID_23_);}
	.st24{fill:url(#SVGID_24_);}
	.st25{fill:url(#SVGID_25_);}
</style>
<g>
	<g>
		<linearGradient id="SVGID_1_" gradientUnits="userSpaceOnUse" x1="390.0426" y1="279.3494" x2="770.7563" y2="294.9524">
			<stop  offset="0" style="stop-color:#8758FE"/>
			<stop  offset="0.2326" style="stop-color:#B264FE"/>
			<stop  offset="0.6051" style="stop-color:#FF78FF"/>
		</linearGradient>
		<polygon class="st0" points="420.5,254.5 498.2,319.7 659.6,254.5 		"/>
		<linearGradient id="SVGID_2_" gradientUnits="userSpaceOnUse" x1="458.7169" y1="264.8525" x2="406.7068" y2="526.9833">
			<stop  offset="3.768444e-02" style="stop-color:#946BFF"/>
			<stop  offset="0.192" style="stop-color:#8A64F8"/>
			<stop  offset="0.4547" style="stop-color:#6F52E7"/>
			<stop  offset="0.7919" style="stop-color:#4334CA"/>
			<stop  offset="0.9" style="stop-color:#342AC0"/>
		</linearGradient>
		<polygon class="st1" points="414.2,261.7 449.6,462.7 491.6,326.8 		"/>
		<linearGradient id="SVGID_3_" gradientUnits="userSpaceOnUse" x1="364.6688" y1="236.2842" x2="508.0406" y2="53.811">
			<stop  offset="8.315464e-02" style="stop-color:#5A83E2"/>
			<stop  offset="0.4214" style="stop-color:#5CB2E7"/>
			<stop  offset="0.8255" style="stop-color:#5FE6EC"/>
		</linearGradient>
		<polygon class="st2" points="542.1,109 410.2,241.1 387.3,109 		"/>
		<linearGradient id="SVGID_4_" gradientUnits="userSpaceOnUse" x1="384.2017" y1="244.2873" x2="631.7697" y2="117.9028">
			<stop  offset="1.396075e-02" style="stop-color:#8F67E2"/>
			<stop  offset="0.1403" style="stop-color:#7D89E5"/>
			<stop  offset="0.2948" style="stop-color:#6AACE9"/>
			<stop  offset="0.4216" style="stop-color:#5EC1EB"/>
			<stop  offset="0.5042" style="stop-color:#5AC9EC"/>
			<stop  offset="1" style="stop-color:#51EABD"/>
		</linearGradient>
		<polygon class="st3" points="555.1,109 618.5,172.7 420.5,244.8 		"/>
		<linearGradient id="SVGID_5_" gradientUnits="userSpaceOnUse" x1="604.0406" y1="137.3814" x2="828.808" y2="70.2633">
			<stop  offset="0" style="stop-color:#66E7C1"/>
			<stop  offset="0.8201" style="stop-color:#96FF86"/>
		</linearGradient>
		<polygon class="st4" points="793.4,109.1 628.5,169.1 568.5,109 		"/>
	</g>
	<g>
		<g>
			<path d="M118.3,567.5v23.4h40.9v16.4h-40.9v32.2H97.9v-88.4h66.8v16.4H118.3z"/>
			<path d="M243.4,639.5l-17-24.6h-1h-17.8v24.6h-20.5v-88.4h38.3c7.8,0,14.6,1.3,20.4,3.9c5.8,2.6,10.2,6.3,13.3,11.1
				c3.1,4.8,4.7,10.5,4.7,17c0,6.6-1.6,12.2-4.7,17s-7.6,8.4-13.4,10.9l19.8,28.4H243.4z M238.2,571.7c-3.2-2.7-7.9-4-14-4h-16.7
				v30.8h16.7c6.1,0,10.8-1.3,14-4c3.2-2.7,4.8-6.5,4.8-11.4C243,578.2,241.4,574.4,238.2,571.7z"/>
			<path d="M353.8,620.5h-41l-7.8,18.9h-21l39.4-88.4h20.2l39.5,88.4h-21.5L353.8,620.5z M347.4,605l-14-33.8l-14,33.8H347.4z"/>
			<path d="M459.4,593.9h18.7v35.9c-4.8,3.6-10.4,6.4-16.7,8.3c-6.3,1.9-12.7,2.9-19.1,2.9c-9.2,0-17.4-2-24.8-5.9
				c-7.3-3.9-13.1-9.3-17.2-16.3c-4.2-6.9-6.3-14.8-6.3-23.6c0-8.8,2.1-16.6,6.3-23.6c4.2-6.9,10-12.4,17.4-16.3
				c7.4-3.9,15.7-5.9,25-5.9c7.7,0,14.8,1.3,21.1,3.9c6.3,2.6,11.6,6.4,15.9,11.4L466.6,577c-6.3-6.6-13.9-10-22.9-10
				c-5.6,0-10.7,1.2-15,3.5c-4.4,2.4-7.8,5.7-10.2,10c-2.4,4.3-3.7,9.2-3.7,14.8c0,5.5,1.2,10.4,3.7,14.7c2.4,4.3,5.8,7.6,10.2,10
				c4.3,2.4,9.3,3.6,14.8,3.6c5.9,0,11.2-1.3,15.9-3.8V593.9z"/>
			<path d="M523.6,635.1c-7.3-3.9-13-9.3-17.2-16.3c-4.2-6.9-6.3-14.8-6.3-23.6c0-8.8,2.1-16.6,6.3-23.6c4.2-6.9,9.9-12.4,17.2-16.3
				c7.3-3.9,15.5-5.9,24.6-5.9c7.7,0,14.6,1.3,20.8,4c6.2,2.7,11.4,6.6,15.6,11.6l-13.1,12.1c-6-6.9-13.4-10.4-22.2-10.4
				c-5.5,0-10.4,1.2-14.6,3.6c-4.3,2.4-7.6,5.7-10,10c-2.4,4.3-3.6,9.2-3.6,14.6c0,5.5,1.2,10.4,3.6,14.7c2.4,4.3,5.7,7.6,10,10
				c4.3,2.4,9.2,3.6,14.6,3.6c8.8,0,16.2-3.5,22.2-10.5l13.1,12.1c-4.2,5.1-9.4,9.1-15.7,11.7c-6.2,2.7-13.2,4-20.8,4
				C539.1,641,530.9,639,523.6,635.1z"/>
			<path d="M622.9,635.1c-7.4-4-13.1-9.4-17.3-16.4c-4.2-6.9-6.3-14.8-6.3-23.4c0-8.7,2.1-16.5,6.3-23.4c4.2-6.9,9.9-12.4,17.3-16.4
				c7.4-4,15.6-5.9,24.8-5.9c9.2,0,17.4,2,24.8,5.9c7.3,4,13.1,9.4,17.3,16.4c4.2,6.9,6.3,14.8,6.3,23.4c0,8.7-2.1,16.5-6.3,23.4
				c-4.2,6.9-10,12.4-17.3,16.4s-15.6,5.9-24.8,5.9C638.5,641,630.3,639,622.9,635.1z M661.8,620c4.2-2.4,7.5-5.7,9.9-10
				c2.4-4.3,3.6-9.2,3.6-14.7c0-5.5-1.2-10.4-3.6-14.6c-2.4-4.3-5.7-7.6-9.9-10c-4.2-2.4-8.9-3.6-14.1-3.6c-5.2,0-9.9,1.2-14.1,3.6
				c-4.2,2.4-7.5,5.7-9.9,10c-2.4,4.3-3.6,9.2-3.6,14.6c0,5.5,1.2,10.4,3.6,14.7c2.4,4.3,5.7,7.6,9.9,10c4.2,2.4,8.9,3.6,14.1,3.6
				C652.9,623.6,657.6,622.4,661.8,620z"/>
			<path d="M716.6,551.1H737v71.7h44.3v16.7h-64.8V551.1z"/>
			<path d="M814,635.1c-7.4-4-13.1-9.4-17.3-16.4c-4.2-6.9-6.3-14.8-6.3-23.4c0-8.7,2.1-16.5,6.3-23.4c4.2-6.9,9.9-12.4,17.3-16.4
				c7.4-4,15.6-5.9,24.8-5.9c9.2,0,17.4,2,24.8,5.9c7.3,4,13.1,9.4,17.3,16.4c4.2,6.9,6.3,14.8,6.3,23.4c0,8.7-2.1,16.5-6.3,23.4
				c-4.2,6.9-10,12.4-17.3,16.4s-15.6,5.9-24.8,5.9C829.6,641,821.3,639,814,635.1z M852.9,620c4.2-2.4,7.5-5.7,9.9-10
				c2.4-4.3,3.6-9.2,3.6-14.7c0-5.5-1.2-10.4-3.6-14.6c-2.4-4.3-5.7-7.6-9.9-10c-4.2-2.4-8.9-3.6-14.1-3.6c-5.2,0-9.9,1.2-14.1,3.6
				c-4.2,2.4-7.5,5.7-9.9,10c-2.4,4.3-3.6,9.2-3.6,14.6c0,5.5,1.2,10.4,3.6,14.7c2.4,4.3,5.7,7.6,9.9,10c4.2,2.4,8.9,3.6,14.1,3.6
				C844,623.6,848.7,622.4,852.9,620z"/>
			<path d="M960.2,639.5l-17-24.6h-1h-17.8v24.6h-20.5v-88.4h38.3c7.8,0,14.6,1.3,20.4,3.9c5.8,2.6,10.2,6.3,13.3,11.1
				c3.1,4.8,4.7,10.5,4.7,17c0,6.6-1.6,12.2-4.7,17c-3.2,4.8-7.6,8.4-13.4,10.9l19.8,28.4H960.2z M955,571.7c-3.2-2.7-7.9-4-14-4
				h-16.7v30.8H941c6.1,0,10.8-1.3,14-4c3.2-2.7,4.8-6.5,4.8-11.4C959.8,578.2,958.2,574.4,955,571.7z"/>
		</g>
	</g>
</g>
</svg>
