<?xml version="1.0" encoding="UTF-8" standalone="no"?><!DOCTYPE svg PUBLIC "-//W3C//DTD SVG 1.1//EN" "http://www.w3.org/Graphics/SVG/1.1/DTD/svg11.dtd"><svg width="100%" height="100%" viewBox="0 0 940 227" version="1.1" xmlns="http://www.w3.org/2000/svg" xmlns:xlink="http://www.w3.org/1999/xlink" xml:space="preserve" xmlns:serif="http://www.serif.com/" style="fill-rule:evenodd;clip-rule:evenodd;"><g id="text1289-6"></g><rect id="rect1281" x="6.771" y="-991.461" width="1391.48" height="1328.12" style="fill:#fff;"/><g id="text1045"></g><g id="text1045-3"></g><g id="text1045-6"></g><g id="text1045-3-9"></g><g id="text1045-3-0"></g><g id="text1045-3-0-0"></g><g id="text1045-3-0-0-6"></g><path id="path867" d="M30.208,55.414l62.5,140.625l62.5,-31.25l78.125,31.25l63.089,-31.968l61.911,31.968l62.5,-140.625" style="fill:none;fill-rule:nonzero;stroke:#0f6dff;stroke-width:15.56px;"/><g id="g1153"><path id="path1041" d="M538.021,24.164l-46.875,46.875l62.5,140.625l62.5,-31.25l78.125,31.25l62.5,-31.25l62.5,31.25l46.875,-46.875l62.5,-132.813l-46.875,39.063l-39.063,85.937l-39.062,-23.437l-62.5,31.25l-78.125,-31.25l-62.5,31.25l-62.5,-140.625Z" style="fill:#18adff;fill-rule:nonzero;stroke:#000;stroke-width:1.56px;"/><path id="path867-9" d="M491.146,71.039l62.5,140.625l62.5,-31.25l78.125,31.25l63.088,-31.968l61.912,31.968l62.5,-140.625" style="fill:none;fill-rule:nonzero;stroke:#0f6dff;stroke-width:5.91px;stroke-linecap:round;"/><path id="path867-1" d="M538.021,24.164l62.5,140.625l62.5,-31.25l78.125,31.25l63.088,-31.968l38.474,24.155m23.438,9.375l62.5,-142.187" style="fill:none;fill-rule:nonzero;stroke:#0f6dff;stroke-width:5.91px;stroke-linecap:round;"/><path id="path1021" d="M491.146,71.039l46.875,-46.875" style="fill:none;fill-rule:nonzero;stroke:#0f6dff;stroke-width:5.91px;stroke-linecap:round;"/><path id="path1023" d="M553.646,211.664l46.875,-46.875" style="fill:none;fill-rule:nonzero;stroke:#0f6dff;stroke-width:5.91px;stroke-linecap:round;"/><path id="path1025" d="M616.146,180.414l46.875,-46.875" style="fill:none;fill-rule:nonzero;stroke:#0f6dff;stroke-width:5.91px;stroke-linecap:round;"/><path id="path1027" d="M694.271,211.664l46.875,-46.875" style="fill:none;fill-rule:nonzero;stroke:#0f6dff;stroke-width:5.91px;stroke-linecap:round;"/><path id="path1029" d="M756.771,180.414l46.875,-46.875" style="fill:none;fill-rule:nonzero;stroke:#0f6dff;stroke-width:5.91px;stroke-linecap:round;"/><path id="path1031" d="M819.271,211.664l46.875,-46.875" style="fill:none;fill-rule:nonzero;stroke:#0f6dff;stroke-width:5.91px;stroke-linecap:round;"/><path id="path1033" d="M881.771,71.039l46.875,-46.875" style="fill:none;fill-rule:nonzero;stroke:#0f6dff;stroke-width:5.91px;stroke-linecap:round;"/><path id="path1035" d="M491.146,71.039l109.375,93.75l15.625,15.625l125,-15.625l15.625,15.625l78.125,-7.813" style="fill-opacity:0;fill-rule:nonzero;stroke:#0f6dff;stroke-width:2.75px;stroke-linecap:round;"/><path id="path1037" d="M819.271,211.664l109.375,-187.5" style="fill:none;fill-rule:nonzero;stroke:#0f6dff;stroke-width:3.34px;stroke-linecap:round;"/></g><g id="text1045-3-0-3-2"></g><g id="text1045-3-0-3-2-0"></g><g id="text1045-3-0-3-2-3"></g><g id="text1257"></g><g id="text1281"></g><g id="text1289"></g><g id="text1289-8"></g><g id="text1349"></g><g id="text1357"></g><g id="text1376"></g><g id="text1357-9"></g></svg>