<svg id="eb841610-74f0-4eb0-83ba-41abf95f9cc4" data-name="Layer 1" xmlns="http://www.w3.org/2000/svg" width="1126.86988" height="713" viewBox="0 0 1126.86988 713"><title>loving_story</title><rect x="87.86988" y="573" width="837" height="2" fill="#3f3d56"/><rect x="414.86988" y="1" width="346" height="247" fill="#81d8bb"/><path d="M43.43494,490.5s133-394,541-151,573,168,573,168" transform="translate(-36.56506 -93.5)" fill="#f2f2f2"/><rect x="420.86988" y="640" width="374" height="2" fill="#3f3d56"/><path d="M1043.306,700.5H743.95234s-6.068-88.997,29.83423-90.00838,31.8569,39.44188,76.86109-16.18128,99.616-52.58916,106.69532-19.72093-13.653,59.16281,24.27192,51.07217S1074.1516,638.80887,1043.306,700.5Z" transform="translate(-36.56506 -93.5)" fill="#81d8bb"/><path d="M888.576,700.52025l-1.01034-.0405c2.35623-58.59492,14.628-96.24277,24.50772-117.50687,10.72711-23.089,21.06411-32.43589,21.16731-32.52774l.67208.75578c-.10172.09086-10.31823,9.34493-20.95942,32.27762C903.12818,604.65277,890.92358,642.14606,888.576,700.52025Z" transform="translate(-36.56506 -93.5)" fill="#f2f2f2"/><path d="M996.91966,700.64123l-.97083-.28246c11.69054-40.1263,39.22015-65.46091,39.49717-65.71226l.67949.74862C1035.85093,635.64451,1008.52724,660.79986,996.91966,700.64123Z" transform="translate(-36.56506 -93.5)" fill="#f2f2f2"/><path d="M791.1019,700.56963,790.1,700.43037c3.96631-28.60563-3.19818-50.79958-9.90713-64.38044-7.26425-14.70478-15.55266-22.73616-15.63562-22.81566l.69973-.72986c.0842.08049,8.50076,8.23533,15.84253,23.09763C787.87112,649.3103,795.10351,671.70919,791.1019,700.56963Z" transform="translate(-36.56506 -93.5)" fill="#f2f2f2"/><path d="M336.306,745.5H36.95234s-6.068-88.997,29.83423-90.00838,31.8569,39.44188,76.86109-16.18128,99.616-52.58916,106.69532-19.72093-13.653,59.16281,24.27192,51.07217S367.1516,683.80887,336.306,745.5Z" transform="translate(-36.56506 -93.5)" fill="#81d8bb"/><path d="M181.576,745.52025l-1.01034-.0405c2.35623-58.59492,14.628-96.24277,24.50772-117.50687,10.72711-23.089,21.06411-32.43589,21.16731-32.52774l.67208.75578c-.10172.09086-10.31823,9.34493-20.95942,32.27762C196.12818,649.65277,183.92358,687.14606,181.576,745.52025Z" transform="translate(-36.56506 -93.5)" fill="#f2f2f2"/><path d="M289.91966,745.64123l-.97083-.28246c11.69054-40.1263,39.22015-65.46091,39.49717-65.71226l.67949.74862C328.85093,680.64451,301.52724,705.79986,289.91966,745.64123Z" transform="translate(-36.56506 -93.5)" fill="#f2f2f2"/><path d="M84.1019,745.56963,83.1,745.43037c3.96631-28.60563-3.19818-50.79958-9.90713-64.38044-7.26425-14.70478-15.55266-22.73616-15.63562-22.81566l.69973-.72986c.0842.08049,8.50076,8.23533,15.84253,23.09763C80.87112,694.3103,88.10351,716.70919,84.1019,745.56963Z" transform="translate(-36.56506 -93.5)" fill="#f2f2f2"/><rect x="25.86988" y="711" width="1101" height="2" fill="#3f3d56"/><polygon points="936.059 577.201 936.059 595.155 951.021 596.152 950.023 575.206 936.059 577.201" fill="#a0616a"/><path d="M975.61627,678.68037l-9.97445-1.99489s-13.96422,24.93611-22.94122,26.931c-7.85487,1.74553-26.40111,8.07307-19.55536,16.978a9.832,9.832,0,0,0,8.66218,3.62209l42.8114-3.64352s16.95656.99744,16.95656-8.977V678.68037Z" transform="translate(-36.56506 -93.5)" fill="#2f2e41"/><polygon points="937.308 484.259 933.011 581.651 960.223 588.812 937.308 484.259" fill="#2f2e41"/><polygon points="947.333 616.024 947.333 641.805 968.817 643.237 967.385 613.16 947.333 616.024" fill="#a0616a"/><path d="M939.49934,453.15562l11.45782,17.18674L976.73727,625.023l4.29668,93.09482h42.96684l-10.0256-226.292s20.05119-24.34788,5.72891-48.69575Z" transform="translate(-36.56506 -93.5)" fill="#2f2e41"/><path d="M988.19509,720.98225l-14.32228-2.86446s-20.05119,35.8057-32.94124,38.67016c-11.04862,2.45524-36.82872,11.224-28.63621,23.60044a14.0472,14.0472,0,0,0,12.95951,5.98215l61.508-5.23472s24.34788,1.43223,24.34788-12.89V720.98225Z" transform="translate(-36.56506 -93.5)" fill="#2f2e41"/><circle cx="953.06225" cy="133.36361" r="30.07679" fill="#a0616a"/><path d="M972.44058,242.61811V285.585c0,1.43223,32.94124-2.86445,32.94124-2.86445s1.43223-40.10239,1.43223-44.39907Z" transform="translate(-36.56506 -93.5)" fill="#a0616a"/><path d="M1008.24628,261.23708s-18.619-4.29669-51.56021,17.18673h-5.72891l-1.43223,32.94125s-20.05119,21.48341-17.18673,30.07678c0,0-24.34788,28.64456-14.32228,40.10238,0,0-22.91565,27.21234-12.89005,38.67016,0,0-24.34788,31.509-10.0256,35.8057,0,0,31.509,0,48.69575,2.86445s88.79813-12.89,88.79813-12.89,1.43223-37.23792,0-37.23792h-1.43222s5.72891-34.37348,2.86445-35.8057c0,0,1.43223-38.67016-2.86445-40.10239Z" transform="translate(-36.56506 -93.5)" fill="#3f3d56"/><path d="M1003.651,294.22086a31.48962,31.48962,0,0,0-24.36681,18.06022,51.40925,51.40925,0,0,0-3.97912,29.16076c4.29668,28.64456,14.32228,37.23793,14.32228,37.23793s-10.0256,4.29668-7.16114,8.59337-2.86446,4.29668-2.86446,4.29668,0,1.43223-4.29668,4.29668-7.16114,1.43223-8.59337,2.86446-7.16114,0-7.16114,0-17.18674,30.07679,0,32.94124,24.34787-11.45782,31.509-10.02559,41.53461-10.0256,38.67016-37.23793-15.75451-91.66259-25.7801-90.23036Z" transform="translate(-36.56506 -93.5)" fill="#d0cde1"/><path d="M963.0561,198.20475a19.43565,19.43565,0,0,1,11.45029-13.28844c5.63542-2.26814,13.7851-8.79407,18.89548-5.50979,2.2813,1.46612,4.24142,3.41148,6.61284,4.72687,3.8325,2.12582,8.36617,2.42374,12.69088,3.13373,10.87554,1.78544,19.98677,13.7873,27.5863,21.76931s11.98683,19.24269,10.62162,30.17894c-.90063,7.21462-4.1437,13.89444-6.29,20.841s-3.10666,14.8348.36981,21.2204c3.9873,7.32388,12.60733,10.684,18.42672,16.65665a27.818,27.818,0,0,1,3.81049,32.75515c-1.29973,2.16444-2.92583,4.19613-3.60709,6.62718s-.07671,5.48576,2.162,6.65284a17.67359,17.67359,0,0,0,3.16029.90669c3.58814,1.08348,5.77378,4.76513,6.73062,8.3891s1.041,7.454,2.21934,11.01215c2.87774,8.68947,11.47379,13.9467,19.43714,18.4604-15.73284-.4235-31.71593-.8199-46.94092,3.16772-6.54374,1.7139-14.09713,4.06336-19.57056.0885-3.75189-2.72466-5.18245-7.69589-5.28807-12.33154s.8562-9.24592.758-13.88174c-.21221-10.01941-5.58468-19.61554-13.50591-25.75457-4.6877-3.633-10.20058-6.14979-14.63279-10.09047a30.07213,30.07213,0,0,1-9.37172-27.56057c.68628-3.59779,2.04886-7.13541,1.8462-10.79245-.39993-7.2166-6.68717-12.86316-8.03413-19.96421-1.415-7.45971,2.82918-14.72234,4.00979-22.22271a50.44,50.44,0,0,0-.24237-13.72777c-.88983-7.53829-2.23141-15.3568-6.70028-21.4925-4.20328-5.77106-10.02359-9.60115-17.15062-10.02335-2.29368-.13588.92051-2.10527,0,0" transform="translate(-36.56506 -93.5)" fill="#2f2e41"/><ellipse cx="950.91391" cy="135.51195" rx="2.86446" ry="5.72891" fill="#a0616a"/><polygon points="144.37 510.5 155.37 620.5 174.37 617.5 182.37 512.5 144.37 510.5" fill="#ffb8b8"/><path d="M213.93494,700l-26,4,3,32s-9,5-3,21,6,20,6,20l20.59795-1.99335c7.98234-.77248,27.1676-7.96759,29.90205-15.50665,1.13432-3.1274-10.97222-3.77778-13.5-4.5C223.93494,753,213.93494,700,213.93494,700Z" transform="translate(-36.56506 -93.5)" fill="#2f2e41"/><polygon points="242.37 506.5 253.37 616.5 272.37 613.5 280.37 508.5 242.37 506.5" fill="#ffb8b8"/><circle cx="224.86988" cy="121" r="31" fill="#ffb8b8"/><path d="M269.93494,236s-8,21,0,28-53,7-53,7l25-45Z" transform="translate(-36.56506 -93.5)" fill="#ffb8b8"/><path d="M328.93494,607c-13,23-140,7-140,7l-22-14-9-5s6-96,17-155,39-63,39-63l.1-1.16.9-10.84s-.83008-.89-2.26-2.5c-8.90991-10.07-40.90991-48.22-35.74-71.5,6-27,51-40,78-41s50,23,50,23l-3.9,16.35-17.1,71.65-.26,1.5-2.74,15.5c5.03.31,8.28,1.42,10.37,2.79,4.57,2.98,3.63,7.21,3.63,7.21L310.245,486.64Z" transform="translate(-36.56506 -93.5)" fill="#3f3d56"/><path d="M157.93494,475s-4.41957,43.59264,6.29022,44.79632S171.93494,475,171.93494,475Z" transform="translate(-36.56506 -93.5)" fill="#ffb8b8"/><path d="M190.93494,279s-17-1-20,18-6,92-6,92l-17,91,35,4,23-138Z" transform="translate(-36.56506 -93.5)" fill="#3f3d56"/><path d="M335.93494,477s7,40-4,41-15-39-15-39Z" transform="translate(-36.56506 -93.5)" fill="#ffb8b8"/><path d="M253.21217,168.07947a33.816,33.816,0,0,0-8.1787.55252,34.45819,34.45819,0,0,0-8.459,3.49064c-12.38831,6.57812-24.63543,15.1499-30.45,27.91442-4.77427,10.48082-4.60909,22.53782-3.05,33.9488.50154,3.67081,1.13563,7.425.36076,11.04794-1.59482,7.45673-8.63254,12.46674-11.82845,19.39008-3.27859,7.10246-2.13586,15.60656,1.14266,22.70906.93562,2.02689,2.06668,4.20592,1.5444,6.37638a8.3002,8.3002,0,0,1-1.6642,3.00813c-2.5788,3.35416-5.55328,6.42039-7.77178,10.023s-3.64957,7.94484-2.71955,12.07226c.96052,4.26278,4.21867,7.57181,7.33531,10.63456,2.92486,2.87428,6.36587,5.95544,10.46066,5.734,2.46338-.13321,4.67806-1.46861,6.77636-2.766,6.29022-3.88925,13.21571-8.71381,14.20341-16.043,1.92658,6.55778,9.67979,9.41339,16.499,9.876,5.79253.39294,11.85406-.31427,16.81608-3.32861s8.57259-8.68877,7.93827-14.45986c-.49515-4.505-3.37674-9.18835-1.34647-13.24025,1.54118-3.07582,5.23116-4.23975,8.128-6.09568a16.97347,16.97347,0,0,0,7.08845-18.0118c-1.79994-7.01574-8.18116-13.12124-6.86771-20.24411.77477-4.20159,4.12135-7.465,5.52865-11.499,1.67908-4.81308.41094-10.17815-1.68039-14.827s-4.984-8.92731-6.76759-13.70265a10.99161,10.99161,0,0,1-.83417-6.007c.89984-4.30508,5.73967-6.5634,10.10948-7.06162s8.95121.06526,13.04532-1.5413c3.7941-1.48883,8.46826-6.24514,7.77981-10.72624-.649-4.22438-6.57325-7.43323-9.86741-9.3816C276.55516,170.04929,264.56916,168.33118,253.21217,168.07947Z" transform="translate(-36.56506 -93.5)" fill="#2f2e41"/><path d="M214.03491,375.84l.9-10.84s-.83008-.89-2.26-2.5h71l-2.74,15.5c5.03.31-1.59-1.87.5-.5C263.845,376,232.235,375.91,214.03491,375.84Z" transform="translate(-36.56506 -93.5)" fill="#2f2e41"/><path d="M310.245,486.64,295.93494,488l-15-110c5.03.31,8.28,1.42,10.37,2.79,4.57,2.98,3.63,7.21,3.63,7.21Z" transform="translate(-36.56506 -93.5)" opacity="0.1"/><polygon points="244.37 177.5 268.37 179.5 308.37 390.5 266.37 394.5 236.37 230.5 244.37 177.5" fill="#3f3d56"/><polygon points="164.87 293 144.37 390.5 161.873 293 164.87 293" opacity="0.1"/><path d="M310.93494,700l-26,4,3,32s-9,5-3,21,6,20,6,20l20.598-1.99335c7.98234-.77248,27.1676-7.96759,29.902-15.50665,1.13432-3.1274-10.97222-3.77778-13.5-4.5C320.93494,753,310.93494,700,310.93494,700Z" transform="translate(-36.56506 -93.5)" fill="#2f2e41"/><ellipse cx="270.43494" cy="218.5" rx="3" ry="5" transform="translate(-109.58365 70.99092) rotate(-30)" fill="#ffb8b8"/><path d="M851.43494,342.5h-454V93.5h454Zm-452-2h450V95.5h-450Z" transform="translate(-36.56506 -93.5)" fill="#3f3d56"/><path d="M624.435,157.14719a48,48,0,0,0-67.88225,67.88225L624.435,292.91169l67.88225-67.88225A48,48,0,0,0,624.435,157.14719Z" transform="translate(-36.56506 -93.5)" fill="#fff"/></svg>